STARTFONT 2.1
FONT -FreeType-League Spartan-Bold-R-Normal--14-100-100-100-P-77-ISO10646-1
SIZE 10 100 100
FONTBOUNDINGBOX 20 21 -2 -4
COMMENT "Generated by fontforge, http://fontforge.sourceforge.net"
COMMENT "OFL"
STARTPROPERTIES 31
FOUNDRY "FreeType"
FAMILY_NAME "League Spartan"
WEIGHT_NAME "Bold"
SLANT "R"
SETWIDTH_NAME "Normal"
ADD_STYLE_NAME ""
PIXEL_SIZE 14
POINT_SIZE 100
RESOLUTION_X 100
RESOLUTION_Y 100
SPACING "P"
AVERAGE_WIDTH 77
CHARSET_REGISTRY "ISO10646"
CHARSET_ENCODING "1"
FONTNAME_REGISTRY ""
CHARSET_COLLECTIONS "ISO8859-2 ISO8859-9 ISO8859-4 ISO10646-1"
FONT_NAME "LeagueSpartanBold"
FACE_NAME "League Spartan Bold"
COPYRIGHT "OFL"
FONT_VERSION "001.000"
FONT_ASCENT 8
FONT_DESCENT 6
UNDERLINE_POSITION -1
UNDERLINE_THICKNESS 1
X_HEIGHT 6
CAP_HEIGHT 9
RAW_ASCENT 681
RAW_DESCENT 319
NORM_SPACE 4
AVG_LOWERCASE_WIDTH 73
AVG_UPPERCASE_WIDTH 92
ENDPROPERTIES
CHARS 561
STARTCHAR $000D
ENCODING 13
SWIDTH 585 0
DWIDTH 9 0
BBX 0 0 0 0
BITMAP
ENDCHAR
STARTCHAR $0020
ENCODING 32
SWIDTH 270 0
DWIDTH 4 0
BBX 0 0 0 0
BITMAP
ENDCHAR
STARTCHAR $0021
ENCODING 33
SWIDTH 315 0
DWIDTH 5 0
BBX 3 10 1 1
BITMAP
E0
60
60
60
60
40
40
00
E0
E0
ENDCHAR
STARTCHAR $0022
ENCODING 34
SWIDTH 405 0
DWIDTH 6 0
BBX 4 3 1 8
BITMAP
D0
D0
90
ENDCHAR
STARTCHAR $0023
ENCODING 35
SWIDTH 675 0
DWIDTH 10 0
BBX 7 10 1 0
BITMAP
12
12
36
7E
34
7C
FE
68
58
08
ENDCHAR
STARTCHAR $0024
ENCODING 36
SWIDTH 540 0
DWIDTH 8 0
BBX 6 12 1 0
BITMAP
20
70
FC
F8
E0
70
3C
1C
8C
FC
70
20
ENDCHAR
STARTCHAR $0025
ENCODING 37
SWIDTH 810 0
DWIDTH 12 0
BBX 10 10 1 0
BITMAP
7100
D300
9200
FE00
0C00
0B80
16C0
1640
3780
2300
ENDCHAR
STARTCHAR $0026
ENCODING 38
SWIDTH 675 0
DWIDTH 10 0
BBX 9 10 0 0
BITMAP
1C00
3E00
3600
3E00
3C00
7D80
E780
E700
7F80
3980
ENDCHAR
STARTCHAR $0027
ENCODING 39
SWIDTH 225 0
DWIDTH 4 0
BBX 2 3 1 8
BITMAP
C0
C0
80
ENDCHAR
STARTCHAR $0028
ENCODING 40
SWIDTH 315 0
DWIDTH 5 0
BBX 3 13 1 -2
BITMAP
20
60
60
C0
C0
C0
C0
C0
C0
C0
40
60
20
ENDCHAR
STARTCHAR $0029
ENCODING 41
SWIDTH 315 0
DWIDTH 5 0
BBX 4 13 1 -2
BITMAP
40
C0
60
60
60
70
70
70
70
60
60
40
C0
ENDCHAR
STARTCHAR $002A
ENCODING 42
SWIDTH 405 0
DWIDTH 6 0
BBX 4 4 1 7
BITMAP
20
F0
70
60
ENDCHAR
STARTCHAR $002B
ENCODING 43
SWIDTH 540 0
DWIDTH 8 0
BBX 6 6 1 3
BITMAP
30
30
FC
FC
30
30
ENDCHAR
STARTCHAR $002C
ENCODING 44
SWIDTH 270 0
DWIDTH 4 0
BBX 3 4 1 0
BITMAP
40
E0
60
40
ENDCHAR
STARTCHAR $002D
ENCODING 45
SWIDTH 360 0
DWIDTH 6 0
BBX 4 2 1 4
BITMAP
F0
E0
ENDCHAR
STARTCHAR $002E
ENCODING 46
SWIDTH 315 0
DWIDTH 5 0
BBX 3 3 1 0
BITMAP
60
E0
40
ENDCHAR
STARTCHAR $002F
ENCODING 47
SWIDTH 495 0
DWIDTH 7 0
BBX 5 10 2 1
BITMAP
18
10
30
20
20
60
60
C0
80
80
ENDCHAR
STARTCHAR $0030
ENCODING 48
SWIDTH 585 0
DWIDTH 9 0
BBX 8 10 0 0
BITMAP
1C
3E
63
63
E3
63
63
77
3E
1C
ENDCHAR
STARTCHAR $0031
ENCODING 49
SWIDTH 315 0
DWIDTH 5 0
BBX 4 10 0 0
BITMAP
30
F0
F0
30
30
30
30
30
30
20
ENDCHAR
STARTCHAR $0032
ENCODING 50
SWIDTH 585 0
DWIDTH 9 0
BBX 7 10 0 0
BITMAP
1C
7E
E6
46
0E
0C
38
70
7E
7E
ENDCHAR
STARTCHAR $0033
ENCODING 51
SWIDTH 540 0
DWIDTH 8 0
BBX 7 10 0 0
BITMAP
38
7C
46
0E
1C
0E
06
EE
7E
38
ENDCHAR
STARTCHAR $0034
ENCODING 52
SWIDTH 540 0
DWIDTH 8 0
BBX 7 10 0 0
BITMAP
1C
1C
3C
7C
7C
EC
FE
FE
1C
08
ENDCHAR
STARTCHAR $0035
ENCODING 53
SWIDTH 540 0
DWIDTH 8 0
BBX 6 10 1 0
BITMAP
7C
7C
60
E8
FC
0C
0C
DC
FC
70
ENDCHAR
STARTCHAR $0036
ENCODING 54
SWIDTH 540 0
DWIDTH 8 0
BBX 6 10 1 0
BITMAP
18
30
70
78
FC
EC
CC
CC
FC
30
ENDCHAR
STARTCHAR $0037
ENCODING 55
SWIDTH 540 0
DWIDTH 8 0
BBX 7 10 1 0
BITMAP
FE
FE
0C
0C
18
18
30
60
60
C0
ENDCHAR
STARTCHAR $0038
ENCODING 56
SWIDTH 540 0
DWIDTH 8 0
BBX 6 10 1 0
BITMAP
30
7C
CC
CC
7C
FC
CC
EC
FC
38
ENDCHAR
STARTCHAR $0039
ENCODING 57
SWIDTH 540 0
DWIDTH 8 0
BBX 6 10 1 0
BITMAP
30
FC
CC
CC
FC
7C
18
18
30
60
ENDCHAR
STARTCHAR $003A
ENCODING 58
SWIDTH 270 0
DWIDTH 4 0
BBX 3 6 1 2
BITMAP
40
C0
00
00
C0
E0
ENDCHAR
STARTCHAR $003B
ENCODING 59
SWIDTH 270 0
DWIDTH 4 0
BBX 3 8 1 -1
BITMAP
40
C0
00
00
C0
E0
40
40
ENDCHAR
STARTCHAR $003C
ENCODING 60
SWIDTH 540 0
DWIDTH 8 0
BBX 6 7 1 1
BITMAP
04
3C
7C
F0
78
3C
04
ENDCHAR
STARTCHAR $003D
ENCODING 61
SWIDTH 540 0
DWIDTH 8 0
BBX 6 4 1 5
BITMAP
FC
FC
00
FC
ENDCHAR
STARTCHAR $003E
ENCODING 62
SWIDTH 540 0
DWIDTH 8 0
BBX 6 7 1 1
BITMAP
80
E0
7C
3C
7C
F0
80
ENDCHAR
STARTCHAR $003F
ENCODING 63
SWIDTH 495 0
DWIDTH 7 0
BBX 6 9 0 1
BITMAP
38
FC
0C
1C
18
30
00
10
30
ENDCHAR
STARTCHAR $0040
ENCODING 64
SWIDTH 765 0
DWIDTH 11 0
BBX 10 10 1 0
BITMAP
1E00
7780
6180
FEC0
B6C0
B6C0
DF80
6200
3F00
1C00
ENDCHAR
STARTCHAR $0041
ENCODING 65
SWIDTH 675 0
DWIDTH 10 0
BBX 9 10 0 0
BITMAP
0C00
1C00
1C00
3E00
3700
7700
7F00
7F80
E180
C180
ENDCHAR
STARTCHAR $0042
ENCODING 66
SWIDTH 540 0
DWIDTH 8 0
BBX 6 10 1 0
BITMAP
F8
FC
CC
DC
FC
FC
CC
CC
FC
F8
ENDCHAR
STARTCHAR $0043
ENCODING 67
SWIDTH 630 0
DWIDTH 9 0
BBX 8 10 1 0
BITMAP
1E
3F
62
C0
C0
C0
E0
76
3F
0E
ENDCHAR
STARTCHAR $0044
ENCODING 68
SWIDTH 585 0
DWIDTH 9 0
BBX 7 10 1 0
BITMAP
F0
FC
CC
C6
C6
C6
CE
DC
FC
F0
ENDCHAR
STARTCHAR $0045
ENCODING 69
SWIDTH 540 0
DWIDTH 8 0
BBX 6 10 1 0
BITMAP
FC
FC
C0
C8
FC
F8
C0
C0
FC
F8
ENDCHAR
STARTCHAR $0046
ENCODING 70
SWIDTH 495 0
DWIDTH 7 0
BBX 5 10 1 0
BITMAP
F8
F8
C0
C8
F8
F8
C0
C0
C0
80
ENDCHAR
STARTCHAR $0047
ENCODING 71
SWIDTH 720 0
DWIDTH 11 0
BBX 10 10 0 0
BITMAP
1E00
3F80
6300
E000
E380
67C0
61C0
7380
3F80
0E00
ENDCHAR
STARTCHAR $0048
ENCODING 72
SWIDTH 630 0
DWIDTH 9 0
BBX 8 10 1 0
BITMAP
C7
C7
C7
CF
FF
FF
C7
C7
C7
83
ENDCHAR
STARTCHAR $0049
ENCODING 73
SWIDTH 270 0
DWIDTH 4 0
BBX 2 10 1 0
BITMAP
C0
C0
C0
C0
C0
C0
C0
C0
C0
80
ENDCHAR
STARTCHAR $004A
ENCODING 74
SWIDTH 405 0
DWIDTH 6 0
BBX 5 10 0 0
BITMAP
18
18
18
18
18
18
18
58
F0
60
ENDCHAR
STARTCHAR $004B
ENCODING 75
SWIDTH 585 0
DWIDTH 9 0
BBX 7 10 1 0
BITMAP
CE
CC
D8
F8
F0
F0
D8
CC
CC
86
ENDCHAR
STARTCHAR $004C
ENCODING 76
SWIDTH 495 0
DWIDTH 7 0
BBX 6 10 1 0
BITMAP
C0
C0
C0
C0
C0
C0
C0
C0
FC
F8
ENDCHAR
STARTCHAR $004D
ENCODING 77
SWIDTH 810 0
DWIDTH 12 0
BBX 10 10 1 0
BITMAP
F1C0
F3C0
F3C0
F3C0
F2C0
D6C0
DCC0
CCC0
CCC0
8080
ENDCHAR
STARTCHAR $004E
ENCODING 78
SWIDTH 720 0
DWIDTH 11 0
BBX 8 10 1 0
BITMAP
F3
F3
F3
DB
DB
CF
CF
CF
C7
83
ENDCHAR
STARTCHAR $004F
ENCODING 79
SWIDTH 720 0
DWIDTH 11 0
BBX 10 10 0 0
BITMAP
1E00
3F80
6380
61C0
E0C0
60C0
61C0
7380
3F80
0E00
ENDCHAR
STARTCHAR $0050
ENCODING 80
SWIDTH 540 0
DWIDTH 8 0
BBX 6 10 1 0
BITMAP
F8
FC
CC
CC
FC
F8
C0
C0
C0
80
ENDCHAR
STARTCHAR $0051
ENCODING 81
SWIDTH 720 0
DWIDTH 11 0
BBX 10 12 0 -2
BITMAP
1E00
3F80
6380
61C0
E0C0
E0C0
61C0
73C0
3F80
1E00
1FC0
0380
ENDCHAR
STARTCHAR $0052
ENCODING 82
SWIDTH 585 0
DWIDTH 9 0
BBX 7 10 1 0
BITMAP
F8
FC
CC
CC
FC
F8
D8
CC
CC
86
ENDCHAR
STARTCHAR $0053
ENCODING 83
SWIDTH 540 0
DWIDTH 8 0
BBX 7 10 0 0
BITMAP
1C
7E
70
78
7C
0E
06
66
FE
3C
ENDCHAR
STARTCHAR $0054
ENCODING 84
SWIDTH 495 0
DWIDTH 7 0
BBX 6 10 0 0
BITMAP
FC
FC
10
10
10
10
10
10
10
10
ENDCHAR
STARTCHAR $0055
ENCODING 85
SWIDTH 630 0
DWIDTH 9 0
BBX 8 10 1 0
BITMAP
C7
C7
C7
C7
C7
C7
C7
EE
7E
38
ENDCHAR
STARTCHAR $0056
ENCODING 86
SWIDTH 675 0
DWIDTH 10 0
BBX 9 10 0 0
BITMAP
E380
6380
7300
7300
7700
3600
1E00
1C00
1C00
0C00
ENDCHAR
STARTCHAR $0057
ENCODING 87
SWIDTH 900 0
DWIDTH 13 0
BBX 12 10 0 0
BITMAP
E630
6630
7720
7F60
7F60
7D60
3DE0
39C0
39E0
38C0
ENDCHAR
STARTCHAR $0058
ENCODING 88
SWIDTH 720 0
DWIDTH 11 0
BBX 9 10 0 0
BITMAP
7380
7300
3F00
1E00
1C00
1E00
3700
7700
6380
C380
ENDCHAR
STARTCHAR $0059
ENCODING 89
SWIDTH 585 0
DWIDTH 9 0
BBX 8 10 0 0
BITMAP
E7
E7
7E
3E
3C
18
18
08
18
08
ENDCHAR
STARTCHAR $005A
ENCODING 90
SWIDTH 630 0
DWIDTH 9 0
BBX 8 10 0 0
BITMAP
7F
7F
0E
0C
1C
18
30
70
7F
FF
ENDCHAR
STARTCHAR $005B
ENCODING 91
SWIDTH 360 0
DWIDTH 6 0
BBX 3 13 1 -2
BITMAP
E0
C0
C0
C0
C0
C0
C0
C0
C0
C0
C0
C0
E0
ENDCHAR
STARTCHAR $005C
ENCODING 92
SWIDTH 495 0
DWIDTH 7 0
BBX 5 10 1 1
BITMAP
C0
C0
60
60
70
30
10
00
18
08
ENDCHAR
STARTCHAR $005D
ENCODING 93
SWIDTH 360 0
DWIDTH 6 0
BBX 4 13 1 -2
BITMAP
F0
30
30
30
30
30
30
30
30
20
30
20
F0
ENDCHAR
STARTCHAR $005E
ENCODING 94
SWIDTH 405 0
DWIDTH 6 0
BBX 5 3 1 7
BITMAP
70
78
88
ENDCHAR
STARTCHAR $005F
ENCODING 95
SWIDTH 405 0
DWIDTH 6 0
BBX 6 1 0 0
BITMAP
FC
ENDCHAR
STARTCHAR $0060
ENCODING 96
SWIDTH 315 0
DWIDTH 5 0
BBX 3 2 1 8
BITMAP
40
E0
ENDCHAR
STARTCHAR $0061
ENCODING 97
SWIDTH 585 0
DWIDTH 9 0
BBX 7 6 0 1
BITMAP
36
7E
66
EE
7E
3E
ENDCHAR
STARTCHAR $0062
ENCODING 98
SWIDTH 540 0
DWIDTH 8 0
BBX 7 11 1 0
BITMAP
C0
C0
C0
C0
D8
FC
EE
CE
FE
FC
08
ENDCHAR
STARTCHAR $0063
ENCODING 99
SWIDTH 405 0
DWIDTH 6 0
BBX 5 6 1 1
BITMAP
70
F0
C0
C0
78
38
ENDCHAR
STARTCHAR $0064
ENCODING 100
SWIDTH 540 0
DWIDTH 8 0
BBX 7 11 0 0
BITMAP
06
06
06
06
36
7E
66
E6
7E
7E
02
ENDCHAR
STARTCHAR $0065
ENCODING 101
SWIDTH 495 0
DWIDTH 7 0
BBX 6 6 0 1
BITMAP
38
6C
7C
FC
7C
38
ENDCHAR
STARTCHAR $0066
ENCODING 102
SWIDTH 360 0
DWIDTH 6 0
BBX 5 10 0 1
BITMAP
18
30
70
70
F0
F0
70
70
70
60
ENDCHAR
STARTCHAR $0067
ENCODING 103
SWIDTH 585 0
DWIDTH 9 0
BBX 7 9 0 -3
BITMAP
36
7E
66
EE
7E
3E
06
7E
38
ENDCHAR
STARTCHAR $0068
ENCODING 104
SWIDTH 540 0
DWIDTH 8 0
BBX 6 10 1 1
BITMAP
C0
C0
C0
C0
D8
FC
CC
CC
CC
CC
ENDCHAR
STARTCHAR $0069
ENCODING 105
SWIDTH 270 0
DWIDTH 4 0
BBX 2 10 1 0
BITMAP
C0
C0
00
00
C0
C0
C0
C0
C0
80
ENDCHAR
STARTCHAR $006A
ENCODING 106
SWIDTH 270 0
DWIDTH 4 0
BBX 4 13 -1 -3
BITMAP
30
70
20
00
70
70
70
70
70
60
F0
E0
C0
ENDCHAR
STARTCHAR $006B
ENCODING 107
SWIDTH 495 0
DWIDTH 7 0
BBX 6 10 1 1
BITMAP
C0
C0
C0
C0
C8
D8
F0
F0
F8
CC
ENDCHAR
STARTCHAR $006C
ENCODING 108
SWIDTH 270 0
DWIDTH 4 0
BBX 2 10 1 1
BITMAP
C0
C0
C0
C0
C0
C0
C0
C0
C0
C0
ENDCHAR
STARTCHAR $006D
ENCODING 109
SWIDTH 810 0
DWIDTH 12 0
BBX 11 6 1 1
BITMAP
DB80
CFC0
CCC0
CCC0
DCE0
C840
ENDCHAR
STARTCHAR $006E
ENCODING 110
SWIDTH 540 0
DWIDTH 8 0
BBX 6 6 1 1
BITMAP
D8
CC
CC
CC
CC
C4
ENDCHAR
STARTCHAR $006F
ENCODING 111
SWIDTH 495 0
DWIDTH 7 0
BBX 7 6 0 1
BITMAP
38
7C
6E
EE
7C
38
ENDCHAR
STARTCHAR $0070
ENCODING 112
SWIDTH 585 0
DWIDTH 9 0
BBX 7 9 1 -3
BITMAP
DC
FC
C6
CE
FC
F8
C0
C0
C0
ENDCHAR
STARTCHAR $0071
ENCODING 113
SWIDTH 585 0
DWIDTH 9 0
BBX 7 9 1 -3
BITMAP
7E
FE
CE
CE
7E
3E
0E
0E
06
ENDCHAR
STARTCHAR $0072
ENCODING 114
SWIDTH 405 0
DWIDTH 6 0
BBX 5 6 1 1
BITMAP
D8
F0
C0
C0
C0
C0
ENDCHAR
STARTCHAR $0073
ENCODING 115
SWIDTH 450 0
DWIDTH 7 0
BBX 5 6 1 1
BITMAP
70
E0
F0
78
F8
F0
ENDCHAR
STARTCHAR $0074
ENCODING 116
SWIDTH 360 0
DWIDTH 6 0
BBX 4 8 0 1
BITMAP
70
70
70
F0
70
70
70
30
ENDCHAR
STARTCHAR $0075
ENCODING 117
SWIDTH 540 0
DWIDTH 8 0
BBX 6 6 1 1
BITMAP
CC
CC
CC
CC
7C
38
ENDCHAR
STARTCHAR $0076
ENCODING 118
SWIDTH 540 0
DWIDTH 8 0
BBX 7 6 0 1
BITMAP
E6
6E
7C
7C
3C
38
ENDCHAR
STARTCHAR $0077
ENCODING 119
SWIDTH 720 0
DWIDTH 11 0
BBX 10 6 0 1
BITMAP
CCC0
ECC0
7CC0
7F80
7380
3100
ENDCHAR
STARTCHAR $0078
ENCODING 120
SWIDTH 540 0
DWIDTH 8 0
BBX 6 6 1 1
BITMAP
FC
78
30
78
FC
C4
ENDCHAR
STARTCHAR $0079
ENCODING 121
SWIDTH 495 0
DWIDTH 7 0
BBX 7 9 0 -3
BITMAP
C6
6E
7C
7C
38
38
30
30
60
ENDCHAR
STARTCHAR $007A
ENCODING 122
SWIDTH 450 0
DWIDTH 7 0
BBX 6 6 0 1
BITMAP
7C
38
30
70
78
F8
ENDCHAR
STARTCHAR $007B
ENCODING 123
SWIDTH 360 0
DWIDTH 6 0
BBX 3 13 1 -2
BITMAP
60
60
60
60
60
E0
C0
60
60
60
60
60
60
ENDCHAR
STARTCHAR $007C
ENCODING 124
SWIDTH 225 0
DWIDTH 4 0
BBX 2 12 1 -1
BITMAP
C0
C0
C0
C0
C0
C0
C0
C0
C0
C0
C0
C0
ENDCHAR
STARTCHAR $007D
ENCODING 125
SWIDTH 360 0
DWIDTH 6 0
BBX 4 13 1 -2
BITMAP
E0
60
70
70
70
70
30
70
70
60
70
60
E0
ENDCHAR
STARTCHAR $007E
ENCODING 126
SWIDTH 585 0
DWIDTH 9 0
BBX 7 3 1 4
BITMAP
70
FE
0C
ENDCHAR
STARTCHAR $00A0
ENCODING 160
SWIDTH 270 0
DWIDTH 4 0
BBX 0 0 0 0
BITMAP
ENDCHAR
STARTCHAR $00A1
ENCODING 161
SWIDTH 315 0
DWIDTH 5 0
BBX 3 10 1 0
BITMAP
60
E0
40
00
60
60
60
60
60
60
ENDCHAR
STARTCHAR $00A2
ENCODING 162
SWIDTH 405 0
DWIDTH 6 0
BBX 5 7 1 1
BITMAP
10
38
78
F0
C0
F0
70
ENDCHAR
STARTCHAR $00A3
ENCODING 163
SWIDTH 630 0
DWIDTH 9 0
BBX 7 10 1 0
BITMAP
38
7C
60
60
60
F8
30
30
FE
8C
ENDCHAR
STARTCHAR $00A4
ENCODING 164
SWIDTH 540 0
DWIDTH 8 0
BBX 6 6 1 3
BITMAP
F4
FC
CC
CC
FC
FC
ENDCHAR
STARTCHAR $00A5
ENCODING 165
SWIDTH 585 0
DWIDTH 9 0
BBX 8 10 0 0
BITMAP
E7
E7
7E
3E
7F
7E
18
7F
18
08
ENDCHAR
STARTCHAR $00A6
ENCODING 166
SWIDTH 225 0
DWIDTH 4 0
BBX 2 10 1 1
BITMAP
C0
C0
C0
80
00
00
C0
C0
C0
C0
ENDCHAR
STARTCHAR $00A7
ENCODING 167
SWIDTH 540 0
DWIDTH 8 0
BBX 6 13 1 -3
BITMAP
70
78
E8
E8
7C
DC
CC
F8
F8
1C
1C
FC
38
ENDCHAR
STARTCHAR $00A8
ENCODING 168
SWIDTH 495 0
DWIDTH 7 0
BBX 5 2 1 8
BITMAP
40
C8
ENDCHAR
STARTCHAR $00A9
ENCODING 169
SWIDTH 765 0
DWIDTH 11 0
BBX 10 10 1 0
BITMAP
1C00
6300
0180
9C80
90C0
90C0
9C80
4180
3F00
1C00
ENDCHAR
STARTCHAR $00AA
ENCODING 170
SWIDTH 405 0
DWIDTH 6 0
BBX 4 4 1 7
BITMAP
70
D0
D0
70
ENDCHAR
STARTCHAR $00AB
ENCODING 171
SWIDTH 495 0
DWIDTH 7 0
BBX 5 5 1 2
BITMAP
28
48
D0
D8
78
ENDCHAR
STARTCHAR $00AC
ENCODING 172
SWIDTH 495 0
DWIDTH 7 0
BBX 6 3 1 2
BITMAP
FC
FC
0C
ENDCHAR
STARTCHAR $00AD
ENCODING 173
SWIDTH 360 0
DWIDTH 6 0
BBX 4 2 1 4
BITMAP
F0
E0
ENDCHAR
STARTCHAR $00AE
ENCODING 174
SWIDTH 405 0
DWIDTH 6 0
BBX 4 4 1 6
BITMAP
70
F0
D0
C0
ENDCHAR
STARTCHAR $00AF
ENCODING 175
SWIDTH 450 0
DWIDTH 7 0
BBX 5 1 1 8
BITMAP
F8
ENDCHAR
STARTCHAR $00B0
ENCODING 176
SWIDTH 315 0
DWIDTH 5 0
BBX 3 3 1 8
BITMAP
60
A0
40
ENDCHAR
STARTCHAR $00B1
ENCODING 177
SWIDTH 540 0
DWIDTH 8 0
BBX 6 8 1 1
BITMAP
30
30
FC
FC
30
00
FC
F8
ENDCHAR
STARTCHAR $00B2
ENCODING 178
SWIDTH 225 0
DWIDTH 4 0
BBX 2 4 1 7
BITMAP
C0
00
40
80
ENDCHAR
STARTCHAR $00B3
ENCODING 179
SWIDTH 225 0
DWIDTH 4 0
BBX 3 4 0 7
BITMAP
60
20
60
C0
ENDCHAR
STARTCHAR $00B4
ENCODING 180
SWIDTH 495 0
DWIDTH 7 0
BBX 3 3 2 7
BITMAP
20
C0
80
ENDCHAR
STARTCHAR $00B5
ENCODING 181
SWIDTH 540 0
DWIDTH 8 0
BBX 6 8 1 -2
BITMAP
CC
CC
CC
CC
FC
F8
C0
C0
ENDCHAR
STARTCHAR $00B6
ENCODING 182
SWIDTH 540 0
DWIDTH 8 0
BBX 7 10 0 0
BITMAP
3E
7E
FA
FA
7A
3A
1A
0A
1A
0A
ENDCHAR
STARTCHAR $00B7
ENCODING 183
SWIDTH 270 0
DWIDTH 4 0
BBX 2 2 1 3
BITMAP
40
C0
ENDCHAR
STARTCHAR $00B8
ENCODING 184
SWIDTH 360 0
DWIDTH 6 0
BBX 3 4 1 -4
BITMAP
40
20
E0
C0
ENDCHAR
STARTCHAR $00B9
ENCODING 185
SWIDTH 135 0
DWIDTH 2 0
BBX 1 1 0 9
BITMAP
80
ENDCHAR
STARTCHAR $00BA
ENCODING 186
SWIDTH 450 0
DWIDTH 7 0
BBX 4 4 1 7
BITMAP
70
D0
D0
70
ENDCHAR
STARTCHAR $00BB
ENCODING 187
SWIDTH 495 0
DWIDTH 7 0
BBX 6 5 1 2
BITMAP
50
D8
6C
4C
D8
ENDCHAR
STARTCHAR $00BC
ENCODING 188
SWIDTH 720 0
DWIDTH 11 0
BBX 9 10 1 0
BITMAP
4300
C600
4400
4C00
4B00
4B00
1500
2D80
2180
0100
ENDCHAR
STARTCHAR $00BD
ENCODING 189
SWIDTH 765 0
DWIDTH 11 0
BBX 10 10 1 0
BITMAP
4300
C600
4400
4C00
4B80
58C0
10C0
2180
2380
0380
ENDCHAR
STARTCHAR $00BE
ENCODING 190
SWIDTH 765 0
DWIDTH 11 0
BBX 9 10 1 0
BITMAP
7100
F300
3200
3600
F100
6B80
1280
1480
3180
2000
ENDCHAR
STARTCHAR $00BF
ENCODING 191
SWIDTH 495 0
DWIDTH 7 0
BBX 6 10 0 0
BITMAP
10
30
10
00
10
70
60
EC
7C
38
ENDCHAR
STARTCHAR $00C0
ENCODING 192
SWIDTH 675 0
DWIDTH 10 0
BBX 9 13 0 1
BITMAP
1000
1800
0800
0800
1C00
1E00
1600
3600
3300
7F00
6B00
E180
C180
ENDCHAR
STARTCHAR $00C1
ENCODING 193
SWIDTH 675 0
DWIDTH 10 0
BBX 9 13 0 1
BITMAP
0400
0C00
0800
0800
1C00
1E00
1600
3600
3300
7F00
6B00
E180
C180
ENDCHAR
STARTCHAR $00C2
ENCODING 194
SWIDTH 675 0
DWIDTH 10 0
BBX 9 13 0 1
BITMAP
1800
1E00
0000
0800
1C00
1E00
1600
3600
3300
7F00
6B00
E180
C180
ENDCHAR
STARTCHAR $00C3
ENCODING 195
SWIDTH 675 0
DWIDTH 10 0
BBX 9 12 0 1
BITMAP
1E00
0600
0000
0C00
1C00
1E00
3600
3300
7F00
7F00
EB80
E180
ENDCHAR
STARTCHAR $00C4
ENCODING 196
SWIDTH 675 0
DWIDTH 10 0
BBX 9 12 0 1
BITMAP
1600
1600
0000
0C00
1C00
1E00
3600
3300
7F00
7F00
EB80
E180
ENDCHAR
STARTCHAR $00C5
ENCODING 197
SWIDTH 675 0
DWIDTH 10 0
BBX 9 13 0 1
BITMAP
0C00
0C00
0C00
0800
1C00
1E00
1600
3600
3300
7F00
6B00
E180
C180
ENDCHAR
STARTCHAR $00C6
ENCODING 198
SWIDTH 855 0
DWIDTH 12 0
BBX 11 10 0 0
BITMAP
0FE0
0FE0
0F00
1F80
1BE0
33E0
3F00
7F00
63E0
C3E0
ENDCHAR
STARTCHAR $00C7
ENCODING 199
SWIDTH 630 0
DWIDTH 9 0
BBX 8 13 1 -3
BITMAP
1E
3F
62
C0
C0
C0
E0
76
3F
1E
00
0C
18
ENDCHAR
STARTCHAR $00C8
ENCODING 200
SWIDTH 540 0
DWIDTH 8 0
BBX 6 13 1 1
BITMAP
40
60
00
08
FC
C0
C0
FC
FC
C0
C8
FC
F8
ENDCHAR
STARTCHAR $00C9
ENCODING 201
SWIDTH 540 0
DWIDTH 8 0
BBX 6 13 1 1
BITMAP
10
30
20
08
FC
C0
C0
FC
FC
C0
C8
FC
F8
ENDCHAR
STARTCHAR $00CA
ENCODING 202
SWIDTH 540 0
DWIDTH 8 0
BBX 6 13 1 1
BITMAP
30
78
08
08
FC
C0
C0
FC
FC
C0
C8
FC
F8
ENDCHAR
STARTCHAR $00CB
ENCODING 203
SWIDTH 540 0
DWIDTH 8 0
BBX 6 12 1 1
BITMAP
48
48
00
FC
C0
C0
F8
FC
C0
C0
C8
FC
ENDCHAR
STARTCHAR $00CC
ENCODING 204
SWIDTH 270 0
DWIDTH 4 0
BBX 3 13 0 1
BITMAP
80
E0
40
00
60
60
60
60
60
60
60
60
40
ENDCHAR
STARTCHAR $00CD
ENCODING 205
SWIDTH 270 0
DWIDTH 4 0
BBX 3 13 1 1
BITMAP
20
C0
80
00
C0
C0
C0
C0
C0
C0
C0
C0
C0
ENDCHAR
STARTCHAR $00CE
ENCODING 206
SWIDTH 270 0
DWIDTH 4 0
BBX 4 13 -1 1
BITMAP
30
F0
80
00
70
70
70
70
70
60
70
60
20
ENDCHAR
STARTCHAR $00CF
ENCODING 207
SWIDTH 270 0
DWIDTH 4 0
BBX 4 12 -1 1
BITMAP
D0
D0
00
70
70
70
70
70
70
60
70
60
ENDCHAR
STARTCHAR $00D0
ENCODING 208
SWIDTH 585 0
DWIDTH 9 0
BBX 8 10 0 0
BITMAP
78
7E
66
E3
F3
F3
67
6F
7E
78
ENDCHAR
STARTCHAR $00D1
ENCODING 209
SWIDTH 720 0
DWIDTH 11 0
BBX 8 13 1 1
BITMAP
16
26
00
00
F3
F3
D3
CB
DB
CF
C7
C7
C3
ENDCHAR
STARTCHAR $00D2
ENCODING 210
SWIDTH 720 0
DWIDTH 11 0
BBX 10 12 0 2
BITMAP
0800
0400
0400
3E00
7380
6180
60C0
E0C0
60C0
7180
7B80
1E00
ENDCHAR
STARTCHAR $00D3
ENCODING 211
SWIDTH 720 0
DWIDTH 11 0
BBX 10 13 0 1
BITMAP
0400
0E00
0400
0A00
3F00
7180
60C0
60C0
E0C0
60C0
7B80
7F00
1E00
ENDCHAR
STARTCHAR $00D4
ENCODING 212
SWIDTH 720 0
DWIDTH 11 0
BBX 10 13 0 1
BITMAP
0C00
0E00
0200
0A00
3F00
7180
60C0
60C0
E0C0
60C0
7B80
7F00
1E00
ENDCHAR
STARTCHAR $00D5
ENCODING 213
SWIDTH 720 0
DWIDTH 11 0
BBX 10 13 0 1
BITMAP
1B00
1E00
0000
0A00
3F00
7180
60C0
60C0
E0C0
60C0
7B80
7F00
1E00
ENDCHAR
STARTCHAR $00D6
ENCODING 214
SWIDTH 720 0
DWIDTH 11 0
BBX 10 12 0 1
BITMAP
1200
1300
0000
3E00
7380
6180
60C0
E0C0
60C0
7180
7B80
1E00
ENDCHAR
STARTCHAR $00D7
ENCODING 215
SWIDTH 495 0
DWIDTH 7 0
BBX 5 5 1 3
BITMAP
58
F8
70
F8
58
ENDCHAR
STARTCHAR $00D8
ENCODING 216
SWIDTH 720 0
DWIDTH 11 0
BBX 10 10 0 0
BITMAP
1E40
3F80
6380
63C0
E0C0
60C0
71C0
7380
7F80
8E00
ENDCHAR
STARTCHAR $00D9
ENCODING 217
SWIDTH 630 0
DWIDTH 9 0
BBX 8 13 1 1
BITMAP
30
30
00
02
C7
C7
C7
C7
C7
C7
CE
7C
38
ENDCHAR
STARTCHAR $00DA
ENCODING 218
SWIDTH 630 0
DWIDTH 9 0
BBX 8 13 1 1
BITMAP
08
08
00
02
C7
C7
C7
C7
C7
C7
CE
7C
38
ENDCHAR
STARTCHAR $00DB
ENCODING 219
SWIDTH 630 0
DWIDTH 9 0
BBX 8 13 1 1
BITMAP
10
3C
00
02
C7
C7
C7
C7
C7
C7
CE
7C
38
ENDCHAR
STARTCHAR $00DC
ENCODING 220
SWIDTH 630 0
DWIDTH 9 0
BBX 8 12 1 1
BITMAP
7C
64
00
C7
C7
C7
C7
C7
C7
C7
EE
7C
ENDCHAR
STARTCHAR $00DD
ENCODING 221
SWIDTH 585 0
DWIDTH 9 0
BBX 7 13 1 1
BITMAP
10
18
00
04
CE
EC
78
78
38
10
10
10
30
ENDCHAR
STARTCHAR $00DE
ENCODING 222
SWIDTH 540 0
DWIDTH 8 0
BBX 6 10 1 0
BITMAP
C0
C0
FC
FC
CC
CC
FC
F8
C0
80
ENDCHAR
STARTCHAR $00DF
ENCODING 223
SWIDTH 540 0
DWIDTH 8 0
BBX 6 11 1 0
BITMAP
38
7C
4C
CC
CC
CC
CC
CC
DC
CC
08
ENDCHAR
STARTCHAR $00E0
ENCODING 224
SWIDTH 585 0
DWIDTH 9 0
BBX 7 10 0 0
BITMAP
10
18
08
02
7E
7E
E6
66
7E
32
ENDCHAR
STARTCHAR $00E1
ENCODING 225
SWIDTH 585 0
DWIDTH 9 0
BBX 7 10 0 0
BITMAP
08
18
10
02
7E
7E
E6
66
7E
32
ENDCHAR
STARTCHAR $00E2
ENCODING 226
SWIDTH 585 0
DWIDTH 9 0
BBX 7 9 0 1
BITMAP
10
38
24
0A
7E
E6
66
7E
3E
ENDCHAR
STARTCHAR $00E3
ENCODING 227
SWIDTH 585 0
DWIDTH 9 0
BBX 7 9 0 1
BITMAP
34
3C
00
0A
7E
E6
66
7E
3E
ENDCHAR
STARTCHAR $00E4
ENCODING 228
SWIDTH 585 0
DWIDTH 9 0
BBX 7 8 0 1
BITMAP
3C
24
00
7E
66
E6
7E
3E
ENDCHAR
STARTCHAR $00E5
ENCODING 229
SWIDTH 585 0
DWIDTH 9 0
BBX 7 10 0 0
BITMAP
18
3C
38
3A
7E
7E
E6
66
7E
32
ENDCHAR
STARTCHAR $00E6
ENCODING 230
SWIDTH 765 0
DWIDTH 11 0
BBX 10 6 1 1
BITMAP
F780
FFC0
7FC0
FF80
FF80
7380
ENDCHAR
STARTCHAR $00E7
ENCODING 231
SWIDTH 405 0
DWIDTH 6 0
BBX 5 9 1 -3
BITMAP
70
F0
C0
C0
78
38
30
10
60
ENDCHAR
STARTCHAR $00E8
ENCODING 232
SWIDTH 495 0
DWIDTH 7 0
BBX 6 10 0 0
BITMAP
10
38
08
08
7C
6C
FC
60
7C
3C
ENDCHAR
STARTCHAR $00E9
ENCODING 233
SWIDTH 495 0
DWIDTH 7 0
BBX 6 10 0 0
BITMAP
10
38
20
08
7C
6C
FC
60
7C
3C
ENDCHAR
STARTCHAR $00EA
ENCODING 234
SWIDTH 495 0
DWIDTH 7 0
BBX 6 9 0 1
BITMAP
10
38
00
08
6C
FC
60
7C
3C
ENDCHAR
STARTCHAR $00EB
ENCODING 235
SWIDTH 495 0
DWIDTH 7 0
BBX 6 8 0 1
BITMAP
7C
64
00
7C
7C
FC
68
3C
ENDCHAR
STARTCHAR $00EC
ENCODING 236
SWIDTH 225 0
DWIDTH 4 0
BBX 3 10 0 0
BITMAP
40
E0
40
00
60
60
60
60
60
40
ENDCHAR
STARTCHAR $00ED
ENCODING 237
SWIDTH 225 0
DWIDTH 4 0
BBX 3 10 0 0
BITMAP
20
40
80
00
60
60
60
60
60
40
ENDCHAR
STARTCHAR $00EE
ENCODING 238
SWIDTH 225 0
DWIDTH 4 0
BBX 4 9 -1 1
BITMAP
60
F0
80
00
70
70
70
70
60
ENDCHAR
STARTCHAR $00EF
ENCODING 239
SWIDTH 225 0
DWIDTH 4 0
BBX 4 8 -1 1
BITMAP
D0
D0
00
70
70
70
70
60
ENDCHAR
STARTCHAR $00F0
ENCODING 240
SWIDTH 540 0
DWIDTH 8 0
BBX 7 11 1 0
BITMAP
50
78
78
7C
7C
FC
CE
CE
FC
7C
08
ENDCHAR
STARTCHAR $00F1
ENCODING 241
SWIDTH 540 0
DWIDTH 8 0
BBX 6 9 1 1
BITMAP
7C
78
00
08
FC
CC
CC
CC
C4
ENDCHAR
STARTCHAR $00F2
ENCODING 242
SWIDTH 495 0
DWIDTH 7 0
BBX 7 10 0 0
BITMAP
10
18
08
08
7C
7E
EE
6E
7C
38
ENDCHAR
STARTCHAR $00F3
ENCODING 243
SWIDTH 495 0
DWIDTH 7 0
BBX 7 10 0 0
BITMAP
10
38
20
08
7C
7E
EE
6E
7C
38
ENDCHAR
STARTCHAR $00F4
ENCODING 244
SWIDTH 495 0
DWIDTH 7 0
BBX 7 9 0 1
BITMAP
10
38
00
08
7C
EE
6E
7C
38
ENDCHAR
STARTCHAR $00F5
ENCODING 245
SWIDTH 495 0
DWIDTH 7 0
BBX 7 9 0 1
BITMAP
34
78
00
08
7C
EE
6E
7C
38
ENDCHAR
STARTCHAR $00F6
ENCODING 246
SWIDTH 495 0
DWIDTH 7 0
BBX 7 8 0 1
BITMAP
7C
64
00
7C
6E
EE
7C
38
ENDCHAR
STARTCHAR $00F7
ENCODING 247
SWIDTH 540 0
DWIDTH 8 0
BBX 6 7 1 1
BITMAP
10
20
00
FC
00
00
10
ENDCHAR
STARTCHAR $00F8
ENCODING 248
SWIDTH 495 0
DWIDTH 7 0
BBX 7 6 0 1
BITMAP
3E
7C
6E
EE
7C
B8
ENDCHAR
STARTCHAR $00F9
ENCODING 249
SWIDTH 540 0
DWIDTH 8 0
BBX 6 10 1 0
BITMAP
10
30
00
00
CC
CC
CC
DC
FC
70
ENDCHAR
STARTCHAR $00FA
ENCODING 250
SWIDTH 540 0
DWIDTH 8 0
BBX 6 10 1 0
BITMAP
10
30
20
00
CC
CC
CC
DC
FC
70
ENDCHAR
STARTCHAR $00FB
ENCODING 251
SWIDTH 540 0
DWIDTH 8 0
BBX 6 9 1 1
BITMAP
10
78
00
00
CC
CC
CC
FC
78
ENDCHAR
STARTCHAR $00FC
ENCODING 252
SWIDTH 540 0
DWIDTH 8 0
BBX 6 8 1 1
BITMAP
6C
48
00
CC
CC
CC
FC
78
ENDCHAR
STARTCHAR $00FD
ENCODING 253
SWIDTH 495 0
DWIDTH 7 0
BBX 6 13 1 -3
BITMAP
20
70
40
04
8C
D8
D8
70
70
60
60
60
40
ENDCHAR
STARTCHAR $00FE
ENCODING 254
SWIDTH 540 0
DWIDTH 8 0
BBX 7 13 1 -2
BITMAP
C0
C0
C0
C0
D8
FC
EE
CE
FE
FC
C8
C0
C0
ENDCHAR
STARTCHAR $00FF
ENCODING 255
SWIDTH 495 0
DWIDTH 7 0
BBX 7 11 0 -2
BITMAP
7C
64
00
C6
6C
7C
38
38
30
30
70
ENDCHAR
STARTCHAR $0100
ENCODING 256
SWIDTH 675 0
DWIDTH 10 0
BBX 9 11 0 2
BITMAP
1E00
0000
0C00
1C00
1E00
1E00
3700
7700
7F00
7F80
E180
ENDCHAR
STARTCHAR $0101
ENCODING 257
SWIDTH 540 0
DWIDTH 8 0
BBX 7 8 0 1
BITMAP
7C
00
00
7E
66
E6
7E
3E
ENDCHAR
STARTCHAR $0102
ENCODING 258
SWIDTH 675 0
DWIDTH 10 0
BBX 9 12 0 1
BITMAP
1600
1C00
0000
0C00
1C00
1E00
3600
3300
7F00
7F00
EB80
E180
ENDCHAR
STARTCHAR $0103
ENCODING 259
SWIDTH 540 0
DWIDTH 8 0
BBX 7 10 0 0
BITMAP
64
3C
18
02
7E
7E
E6
66
7E
32
ENDCHAR
STARTCHAR $0104
ENCODING 260
SWIDTH 675 0
DWIDTH 10 0
BBX 9 13 0 -3
BITMAP
0C00
1C00
1C00
3E00
3700
7700
7F00
7F80
E180
C180
0000
0300
0100
ENDCHAR
STARTCHAR $0105
ENCODING 261
SWIDTH 540 0
DWIDTH 8 0
BBX 7 9 0 -3
BITMAP
36
7E
66
EE
7E
3E
04
0C
06
ENDCHAR
STARTCHAR $0106
ENCODING 262
SWIDTH 630 0
DWIDTH 9 0
BBX 8 13 1 1
BITMAP
04
0C
08
0A
7F
F2
E0
C0
C0
E0
EA
7F
1E
ENDCHAR
STARTCHAR $0107
ENCODING 263
SWIDTH 405 0
DWIDTH 6 0
BBX 5 10 1 0
BITMAP
10
30
20
00
78
F8
C0
C0
F0
70
ENDCHAR
STARTCHAR $0108
ENCODING 264
SWIDTH 630 0
DWIDTH 9 0
BBX 8 13 1 1
BITMAP
18
1C
00
0A
7F
F2
E0
C0
C0
E0
EA
7F
1E
ENDCHAR
STARTCHAR $0109
ENCODING 265
SWIDTH 405 0
DWIDTH 6 0
BBX 5 9 1 1
BITMAP
20
F0
80
08
F8
C0
C0
F0
70
ENDCHAR
STARTCHAR $010A
ENCODING 266
SWIDTH 630 0
DWIDTH 9 0
BBX 7 12 1 1
BITMAP
08
08
00
3E
72
E0
C0
C0
E0
E0
7E
1E
ENDCHAR
STARTCHAR $010B
ENCODING 267
SWIDTH 405 0
DWIDTH 6 0
BBX 5 9 1 1
BITMAP
30
20
00
08
F8
C0
C0
F0
70
ENDCHAR
STARTCHAR $010C
ENCODING 268
SWIDTH 630 0
DWIDTH 9 0
BBX 7 12 1 1
BITMAP
14
1C
00
3E
72
E0
C0
C0
E0
E0
7E
1E
ENDCHAR
STARTCHAR $010D
ENCODING 269
SWIDTH 405 0
DWIDTH 6 0
BBX 5 10 1 0
BITMAP
50
F0
60
00
78
F8
C0
C0
F0
70
ENDCHAR
STARTCHAR $010E
ENCODING 270
SWIDTH 585 0
DWIDTH 9 0
BBX 7 12 1 1
BITMAP
38
10
00
F8
DC
CE
C6
C6
C6
CE
DC
F8
ENDCHAR
STARTCHAR $010F
ENCODING 271
SWIDTH 630 0
DWIDTH 9 0
BBX 10 11 0 0
BITMAP
06C0
06C0
0600
0600
3600
7E00
6600
E600
7E00
7E00
0200
ENDCHAR
STARTCHAR $0110
ENCODING 272
SWIDTH 585 0
DWIDTH 9 0
BBX 8 10 0 0
BITMAP
78
7E
66
E3
F3
F3
67
6F
7E
78
ENDCHAR
STARTCHAR $0111
ENCODING 273
SWIDTH 540 0
DWIDTH 8 0
BBX 8 11 0 0
BITMAP
06
0E
0F
06
36
7E
66
E6
7E
7E
02
ENDCHAR
STARTCHAR $0112
ENCODING 274
SWIDTH 540 0
DWIDTH 8 0
BBX 6 11 1 2
BITMAP
78
00
FC
FC
C0
C0
FC
F8
C0
C0
FC
ENDCHAR
STARTCHAR $0113
ENCODING 275
SWIDTH 495 0
DWIDTH 7 0
BBX 6 8 0 1
BITMAP
7C
00
00
7C
7C
FC
68
3C
ENDCHAR
STARTCHAR $0114
ENCODING 276
SWIDTH 540 0
DWIDTH 8 0
BBX 6 12 1 1
BITMAP
58
70
00
FC
C0
C0
F8
FC
C0
C0
C8
FC
ENDCHAR
STARTCHAR $0115
ENCODING 277
SWIDTH 495 0
DWIDTH 7 0
BBX 6 9 0 1
BITMAP
28
7C
38
08
6C
FC
60
7C
3C
ENDCHAR
STARTCHAR $0116
ENCODING 278
SWIDTH 540 0
DWIDTH 8 0
BBX 6 12 1 1
BITMAP
30
20
00
FC
C0
C0
F8
FC
C0
C0
C8
FC
ENDCHAR
STARTCHAR $0117
ENCODING 279
SWIDTH 495 0
DWIDTH 7 0
BBX 6 9 0 1
BITMAP
10
10
00
08
6C
FC
60
7C
3C
ENDCHAR
STARTCHAR $0118
ENCODING 280
SWIDTH 540 0
DWIDTH 8 0
BBX 6 13 1 -3
BITMAP
FC
FC
C0
C8
FC
F8
C0
C0
FC
F8
10
18
18
ENDCHAR
STARTCHAR $0119
ENCODING 281
SWIDTH 495 0
DWIDTH 7 0
BBX 6 9 0 -3
BITMAP
38
6C
7C
FC
7C
38
10
10
18
ENDCHAR
STARTCHAR $011A
ENCODING 282
SWIDTH 540 0
DWIDTH 8 0
BBX 6 12 1 1
BITMAP
50
30
00
FC
C0
C0
F8
FC
C0
C0
C8
FC
ENDCHAR
STARTCHAR $011B
ENCODING 283
SWIDTH 495 0
DWIDTH 7 0
BBX 6 10 0 0
BITMAP
48
78
30
08
7C
6C
FC
60
7C
3C
ENDCHAR
STARTCHAR $011C
ENCODING 284
SWIDTH 720 0
DWIDTH 11 0
BBX 10 13 0 1
BITMAP
0C00
0E00
0200
0A00
7F00
7180
6000
E000
E7C0
60C0
7B80
7F00
1E00
ENDCHAR
STARTCHAR $011D
ENCODING 285
SWIDTH 585 0
DWIDTH 9 0
BBX 7 12 0 -3
BITMAP
10
38
24
0A
7E
E6
66
7E
3E
06
4E
7C
ENDCHAR
STARTCHAR $011E
ENCODING 286
SWIDTH 720 0
DWIDTH 11 0
BBX 10 12 0 1
BITMAP
1700
0E00
0000
3E00
7380
6000
E000
E7C0
61C0
7180
7B80
1E00
ENDCHAR
STARTCHAR $011F
ENCODING 287
SWIDTH 540 0
DWIDTH 8 0
BBX 7 13 0 -3
BITMAP
64
7C
18
02
7E
7E
E6
66
7E
36
0E
7C
38
ENDCHAR
STARTCHAR $0120
ENCODING 288
SWIDTH 720 0
DWIDTH 11 0
BBX 10 12 0 1
BITMAP
0C00
0400
0000
3E00
7380
6000
E000
E7C0
61C0
7180
7B80
1E00
ENDCHAR
STARTCHAR $0121
ENCODING 289
SWIDTH 540 0
DWIDTH 8 0
BBX 7 12 0 -3
BITMAP
10
10
00
0A
7E
E6
66
7E
3E
06
4E
7C
ENDCHAR
STARTCHAR $0122
ENCODING 290
SWIDTH 720 0
DWIDTH 11 0
BBX 10 13 0 -3
BITMAP
1E00
3F80
6300
E000
E380
67C0
61C0
7380
3F80
0E00
0000
0C00
0C00
ENDCHAR
STARTCHAR $0123
ENCODING 291
SWIDTH 585 0
DWIDTH 9 0
BBX 7 10 0 -3
BITMAP
02
7E
7E
E6
66
7E
36
0E
7C
38
ENDCHAR
STARTCHAR $0124
ENCODING 292
SWIDTH 630 0
DWIDTH 9 0
BBX 8 13 1 1
BITMAP
10
3C
00
02
C7
C7
C7
FF
FF
C7
C7
C7
C6
ENDCHAR
STARTCHAR $0125
ENCODING 293
SWIDTH 540 0
DWIDTH 8 0
BBX 6 14 1 0
BITMAP
10
38
48
00
C0
C0
C0
C0
F8
FC
CC
CC
CC
CC
ENDCHAR
STARTCHAR $0126
ENCODING 294
SWIDTH 630 0
DWIDTH 9 0
BBX 8 10 0 0
BITMAP
63
FF
FF
6B
7F
7F
63
63
63
43
ENDCHAR
STARTCHAR $0127
ENCODING 295
SWIDTH 540 0
DWIDTH 8 0
BBX 7 11 0 0
BITMAP
60
F0
E0
60
6C
7E
66
66
66
66
02
ENDCHAR
STARTCHAR $0128
ENCODING 296
SWIDTH 270 0
DWIDTH 4 0
BBX 5 12 -1 1
BITMAP
78
F0
00
70
70
70
70
70
70
60
70
60
ENDCHAR
STARTCHAR $0129
ENCODING 297
SWIDTH 225 0
DWIDTH 4 0
BBX 5 9 -1 1
BITMAP
78
F0
00
00
30
30
30
30
20
ENDCHAR
STARTCHAR $012A
ENCODING 298
SWIDTH 270 0
DWIDTH 4 0
BBX 4 11 -1 2
BITMAP
F0
00
70
70
70
70
70
70
70
60
70
ENDCHAR
STARTCHAR $012B
ENCODING 299
SWIDTH 225 0
DWIDTH 4 0
BBX 4 8 -1 1
BITMAP
F0
00
00
70
70
70
70
60
ENDCHAR
STARTCHAR $012C
ENCODING 300
SWIDTH 270 0
DWIDTH 4 0
BBX 4 12 -1 1
BITMAP
D0
70
00
70
70
70
70
70
70
60
70
60
ENDCHAR
STARTCHAR $012D
ENCODING 301
SWIDTH 225 0
DWIDTH 4 0
BBX 5 9 -1 1
BITMAP
50
F8
60
00
30
30
30
30
20
ENDCHAR
STARTCHAR $012E
ENCODING 302
SWIDTH 270 0
DWIDTH 4 0
BBX 3 13 0 -3
BITMAP
60
60
60
60
60
60
60
60
60
40
00
C0
40
ENDCHAR
STARTCHAR $012F
ENCODING 303
SWIDTH 270 0
DWIDTH 4 0
BBX 3 13 0 -3
BITMAP
60
60
40
00
60
60
60
60
60
40
00
C0
40
ENDCHAR
STARTCHAR $0130
ENCODING 304
SWIDTH 270 0
DWIDTH 4 0
BBX 2 12 1 1
BITMAP
40
C0
00
C0
C0
C0
C0
C0
C0
C0
C0
C0
ENDCHAR
STARTCHAR $0131
ENCODING 305
SWIDTH 225 0
DWIDTH 4 0
BBX 2 6 1 1
BITMAP
C0
C0
C0
C0
C0
C0
ENDCHAR
STARTCHAR $0134
ENCODING 308
SWIDTH 405 0
DWIDTH 6 0
BBX 6 13 0 1
BITMAP
10
3C
00
08
18
18
18
18
18
18
38
F0
60
ENDCHAR
STARTCHAR $0135
ENCODING 309
SWIDTH 270 0
DWIDTH 4 0
BBX 4 12 -1 -3
BITMAP
30
F0
00
00
70
70
70
70
70
60
F0
E0
ENDCHAR
STARTCHAR $0136
ENCODING 310
SWIDTH 585 0
DWIDTH 9 0
BBX 7 13 1 -3
BITMAP
CE
CC
D8
F8
F0
F0
D8
CC
CC
86
00
10
10
ENDCHAR
STARTCHAR $0137
ENCODING 311
SWIDTH 495 0
DWIDTH 7 0
BBX 6 14 1 -4
BITMAP
C0
C0
C0
C0
C8
D8
F0
F0
F8
CC
00
20
30
30
ENDCHAR
STARTCHAR $0138
ENCODING 312
SWIDTH 540 0
DWIDTH 8 0
BBX 6 6 1 1
BITMAP
D8
F0
F0
F8
DC
CC
ENDCHAR
STARTCHAR $0139
ENCODING 313
SWIDTH 495 0
DWIDTH 7 0
BBX 6 13 1 1
BITMAP
10
30
20
00
C0
C0
C0
C0
C0
C0
C8
FC
F8
ENDCHAR
STARTCHAR $013A
ENCODING 314
SWIDTH 270 0
DWIDTH 4 0
BBX 3 14 1 0
BITMAP
20
60
80
00
C0
C0
C0
C0
C0
C0
C0
C0
C0
C0
ENDCHAR
STARTCHAR $013B
ENCODING 315
SWIDTH 495 0
DWIDTH 7 0
BBX 6 13 1 -2
BITMAP
C0
C0
C0
C0
C0
C0
C0
C0
FC
F8
00
20
30
ENDCHAR
STARTCHAR $013C
ENCODING 316
SWIDTH 270 0
DWIDTH 4 0
BBX 2 14 1 -4
BITMAP
C0
C0
C0
C0
C0
C0
C0
C0
C0
C0
C0
C0
C0
C0
ENDCHAR
STARTCHAR $013D
ENCODING 317
SWIDTH 495 0
DWIDTH 7 0
BBX 6 10 1 0
BITMAP
C4
C4
C0
C0
C0
C0
C0
C0
FC
F8
ENDCHAR
STARTCHAR $013E
ENCODING 318
SWIDTH 270 0
DWIDTH 4 0
BBX 2 10 1 1
BITMAP
C0
C0
C0
C0
C0
C0
C0
C0
C0
C0
ENDCHAR
STARTCHAR $013F
ENCODING 319
SWIDTH 495 0
DWIDTH 7 0
BBX 6 10 1 0
BITMAP
C0
C0
C0
C8
D8
C8
C0
C0
FC
F8
ENDCHAR
STARTCHAR $0140
ENCODING 320
SWIDTH 405 0
DWIDTH 6 0
BBX 5 10 1 1
BITMAP
C0
C0
C0
C0
D8
D8
C0
C0
C0
C0
ENDCHAR
STARTCHAR $0141
ENCODING 321
SWIDTH 495 0
DWIDTH 7 0
BBX 6 10 0 0
BITMAP
70
70
70
70
70
F0
70
70
7C
3C
ENDCHAR
STARTCHAR $0142
ENCODING 322
SWIDTH 270 0
DWIDTH 4 0
BBX 4 10 0 1
BITMAP
70
70
70
70
70
F0
F0
70
70
60
ENDCHAR
STARTCHAR $0143
ENCODING 323
SWIDTH 720 0
DWIDTH 11 0
BBX 8 13 1 1
BITMAP
04
0C
00
00
F3
F3
D3
CB
DB
CF
C7
C7
C3
ENDCHAR
STARTCHAR $0144
ENCODING 324
SWIDTH 540 0
DWIDTH 8 0
BBX 6 10 1 0
BITMAP
08
18
00
08
FC
EC
CC
CC
CC
84
ENDCHAR
STARTCHAR $0145
ENCODING 325
SWIDTH 720 0
DWIDTH 11 0
BBX 8 12 1 -2
BITMAP
F3
F3
F3
DB
DB
CF
CF
CF
C7
83
08
08
ENDCHAR
STARTCHAR $0146
ENCODING 326
SWIDTH 540 0
DWIDTH 8 0
BBX 6 9 1 -3
BITMAP
D8
CC
CC
CC
CC
C4
00
30
10
ENDCHAR
STARTCHAR $0147
ENCODING 327
SWIDTH 720 0
DWIDTH 11 0
BBX 8 12 1 1
BITMAP
14
18
00
F3
F3
F3
DB
CB
CF
CF
C7
C3
ENDCHAR
STARTCHAR $0148
ENCODING 328
SWIDTH 540 0
DWIDTH 8 0
BBX 6 10 1 0
BITMAP
48
70
20
08
FC
EC
CC
CC
CC
84
ENDCHAR
STARTCHAR $014A
ENCODING 330
SWIDTH 720 0
DWIDTH 11 0
BBX 8 13 1 -3
BITMAP
F3
F3
F3
DB
DB
CF
CF
CF
C7
83
03
07
06
ENDCHAR
STARTCHAR $014B
ENCODING 331
SWIDTH 540 0
DWIDTH 8 0
BBX 6 9 1 -3
BITMAP
D8
CC
CC
CC
CC
CC
0C
1C
18
ENDCHAR
STARTCHAR $014C
ENCODING 332
SWIDTH 720 0
DWIDTH 11 0
BBX 10 12 0 1
BITMAP
0F00
0000
0000
3E00
7380
6180
60C0
E0C0
60C0
7180
7B80
1E00
ENDCHAR
STARTCHAR $014D
ENCODING 333
SWIDTH 495 0
DWIDTH 7 0
BBX 7 8 0 1
BITMAP
7C
00
00
7C
6E
EE
7C
38
ENDCHAR
STARTCHAR $014E
ENCODING 334
SWIDTH 720 0
DWIDTH 11 0
BBX 10 12 0 1
BITMAP
1700
0E00
0000
3E00
7380
6180
60C0
E0C0
60C0
7180
7B80
1E00
ENDCHAR
STARTCHAR $014F
ENCODING 335
SWIDTH 495 0
DWIDTH 7 0
BBX 7 9 0 1
BITMAP
28
7C
38
08
7C
EE
6E
7C
38
ENDCHAR
STARTCHAR $0150
ENCODING 336
SWIDTH 720 0
DWIDTH 11 0
BBX 10 13 0 2
BITMAP
1B00
1E00
0000
0A00
3F00
7180
60C0
60C0
E0C0
60C0
7B80
7F00
1E00
ENDCHAR
STARTCHAR $0151
ENCODING 337
SWIDTH 495 0
DWIDTH 7 0
BBX 7 10 0 0
BITMAP
04
1C
08
08
7C
7E
EE
6E
7C
38
ENDCHAR
STARTCHAR $0152
ENCODING 338
SWIDTH 810 0
DWIDTH 12 0
BBX 11 10 0 0
BITMAP
1FC0
3FC0
6300
E380
E3E0
E3C0
6300
7700
3FE0
0FC0
ENDCHAR
STARTCHAR $0153
ENCODING 339
SWIDTH 810 0
DWIDTH 12 0
BBX 11 6 0 1
BITMAP
3BC0
7F40
6FE0
EFE0
7FC0
39C0
ENDCHAR
STARTCHAR $0154
ENCODING 340
SWIDTH 585 0
DWIDTH 9 0
BBX 7 13 1 1
BITMAP
10
10
00
08
FC
CC
CC
DC
F8
D8
CC
CC
C6
ENDCHAR
STARTCHAR $0155
ENCODING 341
SWIDTH 405 0
DWIDTH 6 0
BBX 5 10 1 0
BITMAP
10
30
60
08
F8
F0
C0
C0
C0
80
ENDCHAR
STARTCHAR $0156
ENCODING 342
SWIDTH 585 0
DWIDTH 9 0
BBX 7 13 1 -3
BITMAP
F8
FC
CC
CC
FC
F8
D8
CC
CC
86
00
30
10
ENDCHAR
STARTCHAR $0157
ENCODING 343
SWIDTH 405 0
DWIDTH 6 0
BBX 5 9 1 -3
BITMAP
D8
F0
C0
C0
C0
C0
20
60
20
ENDCHAR
STARTCHAR $0158
ENCODING 344
SWIDTH 585 0
DWIDTH 9 0
BBX 7 12 1 1
BITMAP
78
30
00
FC
CC
CC
CC
F8
F8
CC
CC
CE
ENDCHAR
STARTCHAR $0159
ENCODING 345
SWIDTH 405 0
DWIDTH 6 0
BBX 5 10 1 0
BITMAP
90
F0
60
08
F8
F0
C0
C0
C0
80
ENDCHAR
STARTCHAR $015A
ENCODING 346
SWIDTH 540 0
DWIDTH 8 0
BBX 7 13 0 1
BITMAP
08
1C
10
0A
7C
70
70
38
0E
06
0E
FC
38
ENDCHAR
STARTCHAR $015B
ENCODING 347
SWIDTH 405 0
DWIDTH 6 0
BBX 5 10 1 0
BITMAP
10
30
60
00
F0
E0
70
18
F0
E0
ENDCHAR
STARTCHAR $015C
ENCODING 348
SWIDTH 540 0
DWIDTH 8 0
BBX 7 13 0 1
BITMAP
10
38
00
0A
7C
70
70
38
0E
06
0E
FC
38
ENDCHAR
STARTCHAR $015D
ENCODING 349
SWIDTH 450 0
DWIDTH 7 0
BBX 5 9 1 1
BITMAP
20
F0
80
00
D0
E0
18
D8
F0
ENDCHAR
STARTCHAR $015E
ENCODING 350
SWIDTH 540 0
DWIDTH 8 0
BBX 7 13 0 -3
BITMAP
1C
7E
70
78
7C
1E
06
46
FE
7C
08
18
18
ENDCHAR
STARTCHAR $015F
ENCODING 351
SWIDTH 405 0
DWIDTH 6 0
BBX 5 9 1 -3
BITMAP
70
E0
E0
78
F8
F0
30
10
60
ENDCHAR
STARTCHAR $0160
ENCODING 352
SWIDTH 540 0
DWIDTH 8 0
BBX 7 12 0 1
BITMAP
2C
18
18
3E
70
70
78
3C
06
06
EE
7C
ENDCHAR
STARTCHAR $0161
ENCODING 353
SWIDTH 405 0
DWIDTH 6 0
BBX 5 10 1 0
BITMAP
90
F0
60
00
F0
E0
70
18
F0
E0
ENDCHAR
STARTCHAR $0162
ENCODING 354
SWIDTH 495 0
DWIDTH 7 0
BBX 6 13 0 -3
BITMAP
FC
FC
10
10
10
10
10
10
10
10
18
38
38
ENDCHAR
STARTCHAR $0163
ENCODING 355
SWIDTH 360 0
DWIDTH 6 0
BBX 5 11 0 -2
BITMAP
70
70
70
F0
70
70
70
30
10
18
18
ENDCHAR
STARTCHAR $0164
ENCODING 356
SWIDTH 495 0
DWIDTH 7 0
BBX 6 12 0 1
BITMAP
28
10
00
FC
38
10
10
10
10
10
10
10
ENDCHAR
STARTCHAR $0165
ENCODING 357
SWIDTH 360 0
DWIDTH 6 0
BBX 6 9 0 1
BITMAP
0C
7C
70
F0
F0
70
70
70
30
ENDCHAR
STARTCHAR $0166
ENCODING 358
SWIDTH 495 0
DWIDTH 7 0
BBX 6 10 0 0
BITMAP
FC
FC
10
38
FC
38
10
10
10
10
ENDCHAR
STARTCHAR $0167
ENCODING 359
SWIDTH 360 0
DWIDTH 6 0
BBX 4 8 0 1
BITMAP
70
70
70
F0
70
F0
70
30
ENDCHAR
STARTCHAR $0168
ENCODING 360
SWIDTH 630 0
DWIDTH 9 0
BBX 8 12 1 1
BITMAP
34
7C
00
C7
C7
C7
C7
C7
C7
C7
EE
7C
ENDCHAR
STARTCHAR $0169
ENCODING 361
SWIDTH 540 0
DWIDTH 8 0
BBX 6 9 1 1
BITMAP
7C
78
00
00
CC
CC
CC
FC
78
ENDCHAR
STARTCHAR $016A
ENCODING 362
SWIDTH 630 0
DWIDTH 9 0
BBX 8 11 1 2
BITMAP
7C
00
C7
C7
C7
C7
C7
C7
C7
EE
7E
ENDCHAR
STARTCHAR $016B
ENCODING 363
SWIDTH 540 0
DWIDTH 8 0
BBX 6 8 1 1
BITMAP
78
00
00
CC
CC
CC
FC
78
ENDCHAR
STARTCHAR $016C
ENCODING 364
SWIDTH 630 0
DWIDTH 9 0
BBX 8 12 1 1
BITMAP
2C
18
00
C7
C7
C7
C7
C7
C7
C7
EE
7C
ENDCHAR
STARTCHAR $016D
ENCODING 365
SWIDTH 540 0
DWIDTH 8 0
BBX 6 9 1 1
BITMAP
48
78
30
00
CC
CC
CC
FC
78
ENDCHAR
STARTCHAR $016E
ENCODING 366
SWIDTH 630 0
DWIDTH 9 0
BBX 8 13 1 1
BITMAP
10
38
18
02
C7
C7
C7
C7
C7
C7
CE
7C
38
ENDCHAR
STARTCHAR $016F
ENCODING 367
SWIDTH 540 0
DWIDTH 8 0
BBX 6 10 1 0
BITMAP
30
78
38
38
CC
CC
CC
DC
FC
70
ENDCHAR
STARTCHAR $0170
ENCODING 368
SWIDTH 630 0
DWIDTH 9 0
BBX 8 12 1 1
BITMAP
14
48
00
C7
C7
C7
C7
C7
C7
C7
EE
7C
ENDCHAR
STARTCHAR $0171
ENCODING 369
SWIDTH 540 0
DWIDTH 8 0
BBX 6 10 1 0
BITMAP
18
38
00
00
CC
CC
CC
DC
FC
70
ENDCHAR
STARTCHAR $0172
ENCODING 370
SWIDTH 630 0
DWIDTH 9 0
BBX 8 13 1 -3
BITMAP
C7
C7
C7
C7
C7
C7
C7
EE
7E
3C
10
18
18
ENDCHAR
STARTCHAR $0173
ENCODING 371
SWIDTH 540 0
DWIDTH 8 0
BBX 6 9 1 -3
BITMAP
CC
CC
CC
CC
7C
38
30
30
30
ENDCHAR
STARTCHAR $0174
ENCODING 372
SWIDTH 900 0
DWIDTH 13 0
BBX 11 13 1 1
BITMAP
0C00
1F00
0000
0400
CE60
CE60
FE40
FEC0
FEC0
7B80
7380
7180
7180
ENDCHAR
STARTCHAR $0175
ENCODING 373
SWIDTH 720 0
DWIDTH 11 0
BBX 9 9 1 1
BITMAP
1800
3C00
0400
0100
D980
DF80
EF00
E700
4700
ENDCHAR
STARTCHAR $0176
ENCODING 374
SWIDTH 585 0
DWIDTH 9 0
BBX 7 13 1 1
BITMAP
20
78
00
04
CE
EC
78
78
38
10
10
10
30
ENDCHAR
STARTCHAR $0177
ENCODING 375
SWIDTH 495 0
DWIDTH 7 0
BBX 6 12 1 -3
BITMAP
20
70
00
04
D8
D8
F8
70
60
60
60
40
ENDCHAR
STARTCHAR $0178
ENCODING 376
SWIDTH 585 0
DWIDTH 9 0
BBX 8 12 0 1
BITMAP
3C
24
00
E7
66
3E
3C
1C
18
08
08
08
ENDCHAR
STARTCHAR $0179
ENCODING 377
SWIDTH 630 0
DWIDTH 9 0
BBX 8 13 0 1
BITMAP
04
0C
00
0A
7F
0E
0C
1C
38
30
7A
7F
FF
ENDCHAR
STARTCHAR $017A
ENCODING 378
SWIDTH 450 0
DWIDTH 7 0
BBX 5 10 0 0
BITMAP
10
38
20
08
78
38
30
70
78
F8
ENDCHAR
STARTCHAR $017B
ENCODING 379
SWIDTH 630 0
DWIDTH 9 0
BBX 8 12 0 1
BITMAP
08
08
00
7F
0E
0C
1C
18
30
70
7A
FF
ENDCHAR
STARTCHAR $017C
ENCODING 380
SWIDTH 450 0
DWIDTH 7 0
BBX 6 9 0 1
BITMAP
10
20
00
08
3C
18
30
70
FC
ENDCHAR
STARTCHAR $017D
ENCODING 381
SWIDTH 630 0
DWIDTH 9 0
BBX 8 12 0 1
BITMAP
14
18
00
7F
0E
0C
1C
18
30
70
7A
FF
ENDCHAR
STARTCHAR $017E
ENCODING 382
SWIDTH 450 0
DWIDTH 7 0
BBX 5 10 0 0
BITMAP
48
78
20
08
78
38
30
70
78
F8
ENDCHAR
STARTCHAR $018F
ENCODING 399
SWIDTH 675 0
DWIDTH 10 0
BBX 9 10 0 0
BITMAP
1C00
7F00
6380
0180
FF80
FF80
6180
7380
3F00
0C00
ENDCHAR
STARTCHAR $0192
ENCODING 402
SWIDTH 360 0
DWIDTH 6 0
BBX 8 13 -2 -2
BITMAP
07
0E
0C
0C
3C
3C
18
18
10
10
30
70
F0
ENDCHAR
STARTCHAR $01A0
ENCODING 416
SWIDTH 720 0
DWIDTH 11 0
BBX 10 11 0 0
BITMAP
0040
3F40
7FC0
6180
60C0
E0C0
60C0
71C0
7F80
3F00
0A00
ENDCHAR
STARTCHAR $01A1
ENCODING 417
SWIDTH 495 0
DWIDTH 7 0
BBX 8 7 0 0
BITMAP
03
3B
7F
FE
6E
7C
38
ENDCHAR
STARTCHAR $01AF
ENCODING 431
SWIDTH 765 0
DWIDTH 11 0
BBX 10 11 1 1
BITMAP
0040
C7C0
C780
C700
C700
C700
C700
C700
EE00
7E00
0800
ENDCHAR
STARTCHAR $01B0
ENCODING 432
SWIDTH 675 0
DWIDTH 10 0
BBX 9 7 1 0
BITMAP
0080
C780
CF00
CC00
CC00
FC00
7000
ENDCHAR
STARTCHAR $01C4
ENCODING 452
SWIDTH 1215 0
DWIDTH 18 0
BBX 16 13 1 2
BITMAP
0024
003C
0008
0008
FCFF
FC7E
CE0E
C61C
C61C
C638
C630
FC7E
F8FF
ENDCHAR
STARTCHAR $01C5
ENCODING 453
SWIDTH 1035 0
DWIDTH 15 0
BBX 14 10 1 0
BITMAP
F048
FC38
CC10
C608
C678
C638
CE30
DE20
FC7C
F07C
ENDCHAR
STARTCHAR $01C6
ENCODING 454
SWIDTH 990 0
DWIDTH 14 0
BBX 14 11 0 0
BITMAP
0600
0678
0638
0600
367C
7E78
6638
E630
7E70
7E7C
0208
ENDCHAR
STARTCHAR $01C7
ENCODING 455
SWIDTH 900 0
DWIDTH 13 0
BBX 11 10 1 0
BITMAP
C060
C060
C060
C060
C060
C060
C060
C240
FFC0
F980
ENDCHAR
STARTCHAR $01C8
ENCODING 456
SWIDTH 765 0
DWIDTH 11 0
BBX 9 13 1 -3
BITMAP
C080
C180
C000
C000
C180
C180
C180
C180
FD80
F980
0180
0380
0700
ENDCHAR
STARTCHAR $01C9
ENCODING 457
SWIDTH 495 0
DWIDTH 7 0
BBX 6 13 1 -2
BITMAP
C0
CC
C8
C0
C8
CC
DC
CC
DC
CC
0C
1C
38
ENDCHAR
STARTCHAR $01CA
ENCODING 458
SWIDTH 1125 0
DWIDTH 16 0
BBX 15 10 1 0
BITMAP
F30E
F30E
F30E
DB0E
DB0E
CF0E
CF0E
CF2E
C73C
8318
ENDCHAR
STARTCHAR $01CB
ENCODING 459
SWIDTH 990 0
DWIDTH 14 0
BBX 13 13 1 -3
BITMAP
F310
F318
F310
DB00
DB38
CF18
CF38
CF18
C738
8318
0038
0070
0070
ENDCHAR
STARTCHAR $01CC
ENCODING 460
SWIDTH 810 0
DWIDTH 12 0
BBX 11 13 1 -3
BITMAP
00C0
00C0
0080
0880
FCC0
ECC0
CCE0
CCC0
CCE0
84C0
01C0
03C0
0180
ENDCHAR
STARTCHAR $01CE
ENCODING 462
SWIDTH 585 0
DWIDTH 9 0
BBX 7 10 0 0
BITMAP
24
3C
08
02
7E
7E
E6
66
7E
32
ENDCHAR
STARTCHAR $01D0
ENCODING 464
SWIDTH 225 0
DWIDTH 4 0
BBX 4 10 -1 0
BITMAP
90
F0
60
00
60
70
70
70
70
20
ENDCHAR
STARTCHAR $01D2
ENCODING 466
SWIDTH 495 0
DWIDTH 7 0
BBX 7 10 0 0
BITMAP
24
3C
10
08
7C
7E
EE
6E
7C
38
ENDCHAR
STARTCHAR $01D4
ENCODING 468
SWIDTH 540 0
DWIDTH 8 0
BBX 6 10 1 0
BITMAP
48
78
10
00
CC
CC
CC
DC
FC
70
ENDCHAR
STARTCHAR $01D6
ENCODING 470
SWIDTH 540 0
DWIDTH 8 0
BBX 6 11 1 2
BITMAP
7C
00
00
08
7C
00
CC
CC
CC
DC
F8
ENDCHAR
STARTCHAR $01D8
ENCODING 472
SWIDTH 540 0
DWIDTH 8 0
BBX 6 12 1 1
BITMAP
10
30
20
00
68
00
CC
CC
CC
CC
DC
78
ENDCHAR
STARTCHAR $01DA
ENCODING 474
SWIDTH 540 0
DWIDTH 8 0
BBX 6 12 1 1
BITMAP
48
78
00
00
68
00
CC
CC
CC
CC
DC
78
ENDCHAR
STARTCHAR $01DC
ENCODING 476
SWIDTH 540 0
DWIDTH 8 0
BBX 6 12 1 1
BITMAP
10
30
00
00
68
00
CC
CC
CC
CC
DC
78
ENDCHAR
STARTCHAR $01E6
ENCODING 486
SWIDTH 720 0
DWIDTH 11 0
BBX 10 12 0 1
BITMAP
0200
0E00
0000
3E00
7380
6000
E000
E7C0
61C0
7180
7B80
1E00
ENDCHAR
STARTCHAR $01E7
ENCODING 487
SWIDTH 585 0
DWIDTH 9 0
BBX 7 13 0 -3
BITMAP
24
3C
08
02
7E
7E
E6
66
7E
36
0E
7C
38
ENDCHAR
STARTCHAR $01EA
ENCODING 490
SWIDTH 720 0
DWIDTH 11 0
BBX 10 13 0 -3
BITMAP
1E00
3F80
6380
61C0
E0C0
60C0
61C0
7380
3F80
0E00
0400
0E00
0600
ENDCHAR
STARTCHAR $01EB
ENCODING 491
SWIDTH 495 0
DWIDTH 7 0
BBX 7 9 0 -3
BITMAP
38
7C
6E
EE
7C
38
10
00
0C
ENDCHAR
STARTCHAR $01FA
ENCODING 506
SWIDTH 675 0
DWIDTH 10 0
BBX 9 16 0 1
BITMAP
0400
0C00
0800
0800
1C00
0800
1800
1C00
1C00
1E00
3600
2700
7F00
7F00
6380
C180
ENDCHAR
STARTCHAR $01FB
ENCODING 507
SWIDTH 585 0
DWIDTH 9 0
BBX 7 13 0 2
BITMAP
18
10
00
08
3C
38
00
36
7E
66
EE
7E
3E
ENDCHAR
STARTCHAR $01FC
ENCODING 508
SWIDTH 855 0
DWIDTH 12 0
BBX 11 13 0 2
BITMAP
0040
0080
0100
0280
0FE0
0FE0
1F00
1B00
33E0
33E0
7F00
77E0
E3E0
ENDCHAR
STARTCHAR $01FD
ENCODING 509
SWIDTH 765 0
DWIDTH 11 0
BBX 10 10 1 0
BITMAP
0400
0C00
0C00
0000
F380
1FC0
FFC0
DC00
FF80
6300
ENDCHAR
STARTCHAR $01FE
ENCODING 510
SWIDTH 720 0
DWIDTH 11 0
BBX 10 13 0 2
BITMAP
0400
0C00
0000
0A80
3F80
7380
62C0
64C0
E8C0
60C0
7B80
7F00
9E00
ENDCHAR
STARTCHAR $01FF
ENCODING 511
SWIDTH 495 0
DWIDTH 7 0
BBX 7 10 0 0
BITMAP
10
38
20
08
7C
7E
EE
7E
7C
F8
ENDCHAR
STARTCHAR $0200
ENCODING 512
SWIDTH 675 0
DWIDTH 10 0
BBX 9 13 0 1
BITMAP
1400
3E00
0300
0800
1C00
1E00
1600
3600
3300
7F00
6B00
E180
C180
ENDCHAR
STARTCHAR $0201
ENCODING 513
SWIDTH 585 0
DWIDTH 9 0
BBX 7 10 0 0
BITMAP
48
6C
22
02
7E
7E
E6
66
7E
32
ENDCHAR
STARTCHAR $0202
ENCODING 514
SWIDTH 675 0
DWIDTH 10 0
BBX 9 12 0 1
BITMAP
1C00
1600
0000
0C00
1C00
1E00
3600
3300
7F00
7F00
EB80
E180
ENDCHAR
STARTCHAR $0203
ENCODING 515
SWIDTH 585 0
DWIDTH 9 0
BBX 7 8 0 1
BITMAP
18
24
00
7E
66
E6
7E
3E
ENDCHAR
STARTCHAR $0204
ENCODING 516
SWIDTH 540 0
DWIDTH 8 0
BBX 6 13 1 1
BITMAP
50
F8
40
08
FC
C0
C0
FC
FC
C0
C8
FC
F8
ENDCHAR
STARTCHAR $0205
ENCODING 517
SWIDTH 495 0
DWIDTH 7 0
BBX 6 10 0 0
BITMAP
40
68
24
08
7C
6C
FC
60
7C
3C
ENDCHAR
STARTCHAR $0206
ENCODING 518
SWIDTH 540 0
DWIDTH 8 0
BBX 6 12 1 1
BITMAP
70
40
00
FC
C0
C0
F8
FC
C0
C0
C8
FC
ENDCHAR
STARTCHAR $0207
ENCODING 519
SWIDTH 495 0
DWIDTH 7 0
BBX 6 8 0 1
BITMAP
38
44
00
7C
7C
FC
68
3C
ENDCHAR
STARTCHAR $0208
ENCODING 520
SWIDTH 270 0
DWIDTH 4 0
BBX 5 13 -1 1
BITMAP
40
E8
60
00
30
30
30
30
30
20
30
20
30
ENDCHAR
STARTCHAR $0209
ENCODING 521
SWIDTH 225 0
DWIDTH 4 0
BBX 5 10 -1 0
BITMAP
40
E8
48
00
30
30
30
30
30
20
ENDCHAR
STARTCHAR $020A
ENCODING 522
SWIDTH 270 0
DWIDTH 4 0
BBX 4 12 -1 1
BITMAP
70
D0
00
70
70
70
70
70
70
60
70
60
ENDCHAR
STARTCHAR $020B
ENCODING 523
SWIDTH 225 0
DWIDTH 4 0
BBX 5 9 -1 1
BITMAP
70
F8
08
00
30
30
30
30
20
ENDCHAR
STARTCHAR $020C
ENCODING 524
SWIDTH 720 0
DWIDTH 11 0
BBX 10 13 0 1
BITMAP
1400
1E00
0B00
0A00
3F00
7180
60C0
60C0
E0C0
60C0
7B80
7F00
1E00
ENDCHAR
STARTCHAR $020D
ENCODING 525
SWIDTH 495 0
DWIDTH 7 0
BBX 7 10 0 0
BITMAP
40
6C
24
08
7C
7E
EE
6E
7C
38
ENDCHAR
STARTCHAR $020E
ENCODING 526
SWIDTH 720 0
DWIDTH 11 0
BBX 10 12 0 1
BITMAP
1C00
1E00
0000
3E00
7380
6180
60C0
E0C0
60C0
7180
7B80
1E00
ENDCHAR
STARTCHAR $020F
ENCODING 527
SWIDTH 495 0
DWIDTH 7 0
BBX 7 8 0 1
BITMAP
38
44
00
7C
6E
EE
7C
38
ENDCHAR
STARTCHAR $0210
ENCODING 528
SWIDTH 585 0
DWIDTH 9 0
BBX 7 13 1 1
BITMAP
50
78
20
08
FC
CC
CC
DC
F8
D8
CC
CC
C6
ENDCHAR
STARTCHAR $0211
ENCODING 529
SWIDTH 405 0
DWIDTH 6 0
BBX 5 10 0 0
BITMAP
40
F8
78
08
78
78
60
60
60
40
ENDCHAR
STARTCHAR $0212
ENCODING 530
SWIDTH 585 0
DWIDTH 9 0
BBX 7 12 1 1
BITMAP
30
40
00
FC
CC
CC
CC
F8
F8
CC
CC
CE
ENDCHAR
STARTCHAR $0213
ENCODING 531
SWIDTH 405 0
DWIDTH 6 0
BBX 5 9 0 1
BITMAP
70
F8
88
08
78
60
60
60
40
ENDCHAR
STARTCHAR $0214
ENCODING 532
SWIDTH 630 0
DWIDTH 9 0
BBX 8 13 1 1
BITMAP
48
64
00
02
C7
C7
C7
C7
C7
C7
CE
7C
38
ENDCHAR
STARTCHAR $0215
ENCODING 533
SWIDTH 540 0
DWIDTH 8 0
BBX 6 10 1 0
BITMAP
40
68
64
00
CC
CC
CC
DC
FC
70
ENDCHAR
STARTCHAR $0216
ENCODING 534
SWIDTH 630 0
DWIDTH 9 0
BBX 8 12 1 1
BITMAP
18
04
00
C7
C7
C7
C7
C7
C7
C7
EE
7C
ENDCHAR
STARTCHAR $0217
ENCODING 535
SWIDTH 540 0
DWIDTH 8 0
BBX 6 9 1 1
BITMAP
30
48
00
00
CC
CC
CC
FC
78
ENDCHAR
STARTCHAR $0218
ENCODING 536
SWIDTH 540 0
DWIDTH 8 0
BBX 7 13 0 -2
BITMAP
1C
7E
70
78
7C
0E
06
66
FE
3C
00
10
10
ENDCHAR
STARTCHAR $0219
ENCODING 537
SWIDTH 450 0
DWIDTH 7 0
BBX 5 9 1 -3
BITMAP
70
E0
F0
78
F8
F0
20
70
20
ENDCHAR
STARTCHAR $021A
ENCODING 538
SWIDTH 495 0
DWIDTH 7 0
BBX 6 13 0 -3
BITMAP
FC
FC
10
10
10
10
10
10
10
10
00
10
10
ENDCHAR
STARTCHAR $021B
ENCODING 539
SWIDTH 360 0
DWIDTH 6 0
BBX 4 11 0 -3
BITMAP
70
70
70
F0
70
70
70
30
00
20
30
ENDCHAR
STARTCHAR $022A
ENCODING 554
SWIDTH 720 0
DWIDTH 11 0
BBX 10 14 0 0
BITMAP
1F00
0000
1200
1000
0E00
3F80
7380
61C0
60C0
E0C0
61C0
6380
3F80
1E00
ENDCHAR
STARTCHAR $022B
ENCODING 555
SWIDTH 495 0
DWIDTH 7 0
BBX 7 11 0 1
BITMAP
7C
00
00
7C
00
38
7C
6E
EE
7C
08
ENDCHAR
STARTCHAR $022C
ENCODING 556
SWIDTH 720 0
DWIDTH 11 0
BBX 10 15 0 1
BITMAP
0F00
0000
0000
1E00
0000
0000
3F00
7F80
61C0
60C0
E0C0
60C0
61C0
7F80
3F00
ENDCHAR
STARTCHAR $022D
ENCODING 557
SWIDTH 495 0
DWIDTH 7 0
BBX 7 11 0 2
BITMAP
7C
00
00
7C
00
00
38
7C
EE
6E
7C
ENDCHAR
STARTCHAR $0230
ENCODING 560
SWIDTH 720 0
DWIDTH 11 0
BBX 10 14 0 0
BITMAP
1F00
0000
0C00
0400
0E00
3F80
7380
61C0
60C0
E0C0
61C0
6380
3F80
1E00
ENDCHAR
STARTCHAR $0231
ENCODING 561
SWIDTH 495 0
DWIDTH 7 0
BBX 7 11 0 2
BITMAP
7C
00
00
10
00
00
38
7C
EE
6E
7C
ENDCHAR
STARTCHAR $0232
ENCODING 562
SWIDTH 585 0
DWIDTH 9 0
BBX 8 11 0 2
BITMAP
3C
00
E3
E6
7E
3C
1C
18
18
08
08
ENDCHAR
STARTCHAR $0233
ENCODING 563
SWIDTH 495 0
DWIDTH 7 0
BBX 7 11 0 -2
BITMAP
7C
00
00
C6
6C
7C
38
38
30
30
70
ENDCHAR
STARTCHAR $0237
ENCODING 567
SWIDTH 270 0
DWIDTH 4 0
BBX 4 9 -1 -3
BITMAP
70
70
70
70
70
70
70
E0
C0
ENDCHAR
STARTCHAR $0259
ENCODING 601
SWIDTH 495 0
DWIDTH 7 0
BBX 6 6 1 1
BITMAP
70
F8
1C
FC
7C
38
ENDCHAR
STARTCHAR $02BC
ENCODING 700
SWIDTH 450 0
DWIDTH 7 0
BBX 2 3 1 8
BITMAP
C0
C0
80
ENDCHAR
STARTCHAR $02C6
ENCODING 710
SWIDTH 495 0
DWIDTH 7 0
BBX 4 3 1 7
BITMAP
20
F0
80
ENDCHAR
STARTCHAR $02C7
ENCODING 711
SWIDTH 495 0
DWIDTH 7 0
BBX 4 3 2 7
BITMAP
90
E0
40
ENDCHAR
STARTCHAR $02C9
ENCODING 713
SWIDTH 450 0
DWIDTH 7 0
BBX 5 1 1 8
BITMAP
F8
ENDCHAR
STARTCHAR $02D8
ENCODING 728
SWIDTH 495 0
DWIDTH 7 0
BBX 4 3 1 7
BITMAP
90
F0
60
ENDCHAR
STARTCHAR $02D9
ENCODING 729
SWIDTH 270 0
DWIDTH 4 0
BBX 2 2 1 8
BITMAP
40
C0
ENDCHAR
STARTCHAR $02DA
ENCODING 730
SWIDTH 405 0
DWIDTH 6 0
BBX 4 4 1 7
BITMAP
70
F0
60
40
ENDCHAR
STARTCHAR $02DB
ENCODING 731
SWIDTH 360 0
DWIDTH 6 0
BBX 3 4 1 -4
BITMAP
40
80
E0
40
ENDCHAR
STARTCHAR $02DC
ENCODING 732
SWIDTH 495 0
DWIDTH 7 0
BBX 5 2 1 8
BITMAP
78
F0
ENDCHAR
STARTCHAR $02DD
ENCODING 733
SWIDTH 495 0
DWIDTH 7 0
BBX 4 3 1 7
BITMAP
50
70
80
ENDCHAR
STARTCHAR $0300
ENCODING 768
SWIDTH 0 0
DWIDTH 0 0
BBX 2 3 1 7
BITMAP
80
C0
40
ENDCHAR
STARTCHAR $0301
ENCODING 769
SWIDTH 0 0
DWIDTH 0 0
BBX 3 3 2 7
BITMAP
20
C0
80
ENDCHAR
STARTCHAR $0302
ENCODING 770
SWIDTH 0 0
DWIDTH 0 0
BBX 4 3 1 7
BITMAP
20
F0
80
ENDCHAR
STARTCHAR $0303
ENCODING 771
SWIDTH 0 0
DWIDTH 0 0
BBX 5 2 1 8
BITMAP
78
F0
ENDCHAR
STARTCHAR $0304
ENCODING 772
SWIDTH 0 0
DWIDTH 0 0
BBX 4 1 1 8
BITMAP
F0
ENDCHAR
STARTCHAR $0306
ENCODING 774
SWIDTH 0 0
DWIDTH 0 0
BBX 4 3 1 7
BITMAP
90
F0
60
ENDCHAR
STARTCHAR $0307
ENCODING 775
SWIDTH 0 0
DWIDTH 0 0
BBX 2 2 1 8
BITMAP
C0
C0
ENDCHAR
STARTCHAR $0308
ENCODING 776
SWIDTH 0 0
DWIDTH 0 0
BBX 5 2 1 8
BITMAP
48
C8
ENDCHAR
STARTCHAR $0309
ENCODING 777
SWIDTH 0 0
DWIDTH 0 0
BBX 4 4 3 6
BITMAP
E0
30
60
40
ENDCHAR
STARTCHAR $030A
ENCODING 778
SWIDTH 0 0
DWIDTH 0 0
BBX 4 4 1 7
BITMAP
60
B0
E0
40
ENDCHAR
STARTCHAR $030B
ENCODING 779
SWIDTH 0 0
DWIDTH 0 0
BBX 3 3 1 6
BITMAP
40
60
80
ENDCHAR
STARTCHAR $030C
ENCODING 780
SWIDTH 0 0
DWIDTH 0 0
BBX 4 3 1 7
BITMAP
90
F0
60
ENDCHAR
STARTCHAR $030F
ENCODING 783
SWIDTH 0 0
DWIDTH 0 0
BBX 5 3 1 7
BITMAP
90
F8
48
ENDCHAR
STARTCHAR $0311
ENCODING 785
SWIDTH 0 0
DWIDTH 0 0
BBX 4 3 1 6
BITMAP
70
D0
80
ENDCHAR
STARTCHAR $0312
ENCODING 786
SWIDTH 0 0
DWIDTH 0 0
BBX 2 3 1 7
BITMAP
40
C0
80
ENDCHAR
STARTCHAR $031B
ENCODING 795
SWIDTH 0 0
DWIDTH 0 0
BBX 3 3 3 6
BITMAP
60
C0
80
ENDCHAR
STARTCHAR $0323
ENCODING 803
SWIDTH 0 0
DWIDTH 0 0
BBX 2 2 1 -1
BITMAP
40
C0
ENDCHAR
STARTCHAR $0324
ENCODING 804
SWIDTH 0 0
DWIDTH 0 0
BBX 4 2 1 -2
BITMAP
D0
D0
ENDCHAR
STARTCHAR $0326
ENCODING 806
SWIDTH 0 0
DWIDTH 0 0
BBX 2 3 1 -3
BITMAP
40
C0
40
ENDCHAR
STARTCHAR $0327
ENCODING 807
SWIDTH 0 0
DWIDTH 0 0
BBX 3 4 1 -4
BITMAP
40
20
E0
C0
ENDCHAR
STARTCHAR $0328
ENCODING 808
SWIDTH 0 0
DWIDTH 0 0
BBX 2 3 1 -4
BITMAP
80
C0
80
ENDCHAR
STARTCHAR $032E
ENCODING 814
SWIDTH 0 0
DWIDTH 0 0
BBX 5 3 1 -3
BITMAP
50
F8
70
ENDCHAR
STARTCHAR $0331
ENCODING 817
SWIDTH 0 0
DWIDTH 0 0
BBX 4 1 1 -1
BITMAP
F0
ENDCHAR
STARTCHAR $1E80
ENCODING 7808
SWIDTH 900 0
DWIDTH 13 0
BBX 11 13 1 1
BITMAP
0800
0C00
0400
0400
CE60
CE60
FE40
FEC0
FEC0
7B80
7380
7180
7180
ENDCHAR
STARTCHAR $1E81
ENCODING 7809
SWIDTH 720 0
DWIDTH 11 0
BBX 10 10 0 0
BITMAP
0800
0C00
0200
0080
CCC0
6CC0
7FC0
7380
7380
2300
ENDCHAR
STARTCHAR $1E82
ENCODING 7810
SWIDTH 900 0
DWIDTH 13 0
BBX 11 13 1 1
BITMAP
0200
0600
0000
0400
CE60
CE60
FE40
FEC0
FEC0
7B80
7380
7180
7180
ENDCHAR
STARTCHAR $1E83
ENCODING 7811
SWIDTH 720 0
DWIDTH 11 0
BBX 10 10 0 0
BITMAP
0400
0C00
0800
0080
CCC0
6CC0
7FC0
7380
7380
2300
ENDCHAR
STARTCHAR $1E84
ENCODING 7812
SWIDTH 900 0
DWIDTH 13 0
BBX 12 12 0 1
BITMAP
0D80
0D80
0000
E630
6730
7720
7F60
7F60
7D60
39C0
39C0
38C0
ENDCHAR
STARTCHAR $1E85
ENCODING 7813
SWIDTH 720 0
DWIDTH 11 0
BBX 10 8 0 1
BITMAP
1300
1200
0000
CCC0
7CC0
7FC0
7380
2380
ENDCHAR
STARTCHAR $1E9E
ENCODING 7838
SWIDTH 630 0
DWIDTH 9 0
BBX 8 10 1 0
BITMAP
3C
7E
CE
CC
DE
CF
C7
C7
DE
9C
ENDCHAR
STARTCHAR $1EA0
ENCODING 7840
SWIDTH 675 0
DWIDTH 10 0
BBX 9 12 0 -2
BITMAP
0C00
1C00
1C00
3E00
3700
7700
7F00
7F80
E180
C180
0800
0800
ENDCHAR
STARTCHAR $1EA1
ENCODING 7841
SWIDTH 585 0
DWIDTH 9 0
BBX 7 7 0 -1
BITMAP
36
7E
66
EE
7E
3E
10
ENDCHAR
STARTCHAR $1EA2
ENCODING 7842
SWIDTH 675 0
DWIDTH 10 0
BBX 9 13 0 1
BITMAP
0C00
0C00
0400
0800
1C00
1E00
1600
3600
3300
7F00
6B00
E180
C180
ENDCHAR
STARTCHAR $1EA3
ENCODING 7843
SWIDTH 585 0
DWIDTH 9 0
BBX 7 10 0 0
BITMAP
10
08
08
1A
7E
7E
E6
66
7E
32
ENDCHAR
STARTCHAR $1EA4
ENCODING 7844
SWIDTH 675 0
DWIDTH 10 0
BBX 10 15 0 0
BITMAP
0080
0380
1E00
1E00
0000
0C00
1C00
1C00
3E00
2200
7B00
7F00
7F80
E180
E1C0
ENDCHAR
STARTCHAR $1EA5
ENCODING 7845
SWIDTH 585 0
DWIDTH 9 0
BBX 7 12 0 2
BITMAP
18
10
00
08
3C
04
36
7E
66
E6
6E
7E
ENDCHAR
STARTCHAR $1EA6
ENCODING 7846
SWIDTH 675 0
DWIDTH 10 0
BBX 10 15 0 0
BITMAP
0400
0600
1D00
1E00
0000
0C00
1C00
1C00
3E00
2200
7B00
7F00
7F80
E180
E1C0
ENDCHAR
STARTCHAR $1EA7
ENCODING 7847
SWIDTH 585 0
DWIDTH 9 0
BBX 7 13 0 1
BITMAP
10
18
08
00
18
3C
00
36
7E
66
EE
7E
3E
ENDCHAR
STARTCHAR $1EA8
ENCODING 7848
SWIDTH 675 0
DWIDTH 10 0
BBX 9 16 0 1
BITMAP
0600
0300
0300
0A00
1E00
1200
1800
1C00
1C00
1E00
3600
2700
7F00
7F00
6380
C180
ENDCHAR
STARTCHAR $1EA9
ENCODING 7849
SWIDTH 585 0
DWIDTH 9 0
BBX 7 13 0 1
BITMAP
10
08
08
08
18
3C
00
36
7E
66
EE
7E
3E
ENDCHAR
STARTCHAR $1EAA
ENCODING 7850
SWIDTH 675 0
DWIDTH 10 0
BBX 9 15 0 1
BITMAP
1A00
1E00
0000
0E00
1200
0000
0C00
1C00
1E00
3600
3200
7F00
7F00
6380
E180
ENDCHAR
STARTCHAR $1EAB
ENCODING 7851
SWIDTH 585 0
DWIDTH 9 0
BBX 7 12 0 1
BITMAP
34
0C
00
08
3C
04
36
7E
66
E6
6E
7E
ENDCHAR
STARTCHAR $1EAC
ENCODING 7852
SWIDTH 675 0
DWIDTH 10 0
BBX 9 15 0 -2
BITMAP
1800
1E00
0000
0800
1C00
1E00
1600
3600
3300
7F00
6B00
E180
C180
0800
0800
ENDCHAR
STARTCHAR $1EAD
ENCODING 7853
SWIDTH 585 0
DWIDTH 9 0
BBX 7 9 0 1
BITMAP
10
38
24
0A
7E
E6
66
7E
3E
ENDCHAR
STARTCHAR $1EAE
ENCODING 7854
SWIDTH 675 0
DWIDTH 10 0
BBX 9 15 0 1
BITMAP
0400
0C00
0000
0A00
1C00
0000
0C00
1C00
1E00
3600
3200
7F00
7F00
6380
E180
ENDCHAR
STARTCHAR $1EAF
ENCODING 7855
SWIDTH 585 0
DWIDTH 9 0
BBX 7 12 0 2
BITMAP
18
18
00
00
3C
38
36
7E
66
E6
6E
7E
ENDCHAR
STARTCHAR $1EB0
ENCODING 7856
SWIDTH 675 0
DWIDTH 10 0
BBX 9 15 0 1
BITMAP
1000
1800
0000
0A00
1C00
0000
0C00
1C00
1E00
3600
3200
7F00
7F00
6380
E180
ENDCHAR
STARTCHAR $1EB1
ENCODING 7857
SWIDTH 585 0
DWIDTH 9 0
BBX 7 12 0 2
BITMAP
10
18
00
00
3C
38
36
7E
66
E6
6E
7E
ENDCHAR
STARTCHAR $1EB2
ENCODING 7858
SWIDTH 675 0
DWIDTH 10 0
BBX 9 15 0 1
BITMAP
0C00
0C00
0000
0A00
1C00
0000
0C00
1C00
1E00
3600
3200
7F00
7F00
6380
E180
ENDCHAR
STARTCHAR $1EB3
ENCODING 7859
SWIDTH 585 0
DWIDTH 9 0
BBX 7 13 0 1
BITMAP
18
08
08
00
24
38
00
36
7E
66
EE
7E
3E
ENDCHAR
STARTCHAR $1EB4
ENCODING 7860
SWIDTH 675 0
DWIDTH 10 0
BBX 10 15 0 0
BITMAP
1E00
0600
0000
1E00
0000
0C00
1C00
1C00
3E00
2200
7B00
7F00
7F80
E180
E1C0
ENDCHAR
STARTCHAR $1EB5
ENCODING 7861
SWIDTH 585 0
DWIDTH 9 0
BBX 7 11 0 2
BITMAP
34
0C
00
08
3C
00
3E
7E
E6
66
7E
ENDCHAR
STARTCHAR $1EB6
ENCODING 7862
SWIDTH 675 0
DWIDTH 10 0
BBX 9 15 0 -3
BITMAP
1600
1C00
0000
0C00
1C00
1E00
3600
3300
7F00
7F00
EB80
E180
0000
0800
0800
ENDCHAR
STARTCHAR $1EB7
ENCODING 7863
SWIDTH 585 0
DWIDTH 9 0
BBX 7 9 0 1
BITMAP
24
3C
18
0A
7E
E6
66
7E
3E
ENDCHAR
STARTCHAR $1EB8
ENCODING 7864
SWIDTH 540 0
DWIDTH 8 0
BBX 6 12 1 -2
BITMAP
FC
FC
C0
C8
FC
F8
C0
C0
FC
F8
00
20
ENDCHAR
STARTCHAR $1EB9
ENCODING 7865
SWIDTH 495 0
DWIDTH 7 0
BBX 6 7 0 -1
BITMAP
38
6C
7C
FC
7C
38
10
ENDCHAR
STARTCHAR $1EBA
ENCODING 7866
SWIDTH 540 0
DWIDTH 8 0
BBX 6 13 1 1
BITMAP
30
30
20
08
FC
C0
C0
FC
FC
C0
C8
FC
F8
ENDCHAR
STARTCHAR $1EBB
ENCODING 7867
SWIDTH 495 0
DWIDTH 7 0
BBX 6 10 0 0
BITMAP
10
08
18
38
7C
6C
FC
60
7C
3C
ENDCHAR
STARTCHAR $1EBC
ENCODING 7868
SWIDTH 540 0
DWIDTH 8 0
BBX 6 12 1 1
BITMAP
78
F0
00
FC
C0
C0
F8
FC
C0
C0
C8
FC
ENDCHAR
STARTCHAR $1EBD
ENCODING 7869
SWIDTH 495 0
DWIDTH 7 0
BBX 6 9 0 1
BITMAP
34
78
00
08
6C
FC
60
7C
3C
ENDCHAR
STARTCHAR $1EBE
ENCODING 7870
SWIDTH 540 0
DWIDTH 8 0
BBX 7 15 1 0
BITMAP
06
0E
78
78
00
FC
FC
C0
C0
FC
C8
C0
C0
FC
F8
ENDCHAR
STARTCHAR $1EBF
ENCODING 7871
SWIDTH 495 0
DWIDTH 7 0
BBX 6 13 0 1
BITMAP
10
38
20
00
30
7C
00
38
6C
7C
EC
7C
38
ENDCHAR
STARTCHAR $1EC0
ENCODING 7872
SWIDTH 540 0
DWIDTH 8 0
BBX 6 14 1 0
BITMAP
08
70
78
00
FC
FC
C0
C0
FC
C8
C0
C0
FC
F8
ENDCHAR
STARTCHAR $1EC1
ENCODING 7873
SWIDTH 495 0
DWIDTH 7 0
BBX 6 13 0 1
BITMAP
10
18
08
00
30
7C
00
38
6C
7C
EC
7C
38
ENDCHAR
STARTCHAR $1EC2
ENCODING 7874
SWIDTH 540 0
DWIDTH 8 0
BBX 6 16 1 1
BITMAP
18
0C
0C
18
78
40
F8
FC
C0
C0
C8
FC
C0
C0
FC
FC
ENDCHAR
STARTCHAR $1EC3
ENCODING 7875
SWIDTH 495 0
DWIDTH 7 0
BBX 6 13 0 1
BITMAP
10
08
18
10
10
7C
00
38
6C
7C
EC
7C
38
ENDCHAR
STARTCHAR $1EC4
ENCODING 7876
SWIDTH 540 0
DWIDTH 8 0
BBX 6 15 1 1
BITMAP
78
F0
00
38
58
00
FC
F8
C0
C0
FC
C0
C0
F8
FC
ENDCHAR
STARTCHAR $1EC5
ENCODING 7877
SWIDTH 495 0
DWIDTH 7 0
BBX 6 12 0 1
BITMAP
34
78
00
00
38
00
38
7C
7C
FC
68
7C
ENDCHAR
STARTCHAR $1EC6
ENCODING 7878
SWIDTH 540 0
DWIDTH 8 0
BBX 6 15 1 -2
BITMAP
30
78
08
08
FC
C0
C0
FC
FC
C0
C8
FC
F8
20
20
ENDCHAR
STARTCHAR $1EC7
ENCODING 7879
SWIDTH 495 0
DWIDTH 7 0
BBX 6 10 0 0
BITMAP
10
38
00
08
6C
FC
60
7C
3C
10
ENDCHAR
STARTCHAR $1EC8
ENCODING 7880
SWIDTH 270 0
DWIDTH 4 0
BBX 4 13 0 1
BITMAP
F0
20
00
00
60
60
60
60
60
60
60
60
40
ENDCHAR
STARTCHAR $1EC9
ENCODING 7881
SWIDTH 225 0
DWIDTH 4 0
BBX 3 10 0 0
BITMAP
E0
20
60
60
60
60
60
60
60
40
ENDCHAR
STARTCHAR $1ECA
ENCODING 7882
SWIDTH 270 0
DWIDTH 4 0
BBX 2 10 1 0
BITMAP
C0
C0
C0
C0
C0
C0
C0
C0
C0
80
ENDCHAR
STARTCHAR $1ECB
ENCODING 7883
SWIDTH 270 0
DWIDTH 4 0
BBX 2 10 1 0
BITMAP
C0
C0
00
00
C0
C0
C0
C0
C0
80
ENDCHAR
STARTCHAR $1ECC
ENCODING 7884
SWIDTH 720 0
DWIDTH 11 0
BBX 10 13 0 -2
BITMAP
1E00
3F80
6380
61C0
E0C0
60C0
61C0
7380
3F80
0E00
0000
0000
0400
ENDCHAR
STARTCHAR $1ECD
ENCODING 7885
SWIDTH 495 0
DWIDTH 7 0
BBX 7 9 0 -3
BITMAP
38
7C
6E
EE
7C
38
00
10
10
ENDCHAR
STARTCHAR $1ECE
ENCODING 7886
SWIDTH 720 0
DWIDTH 11 0
BBX 10 13 0 1
BITMAP
0C00
0400
0400
0A00
3F00
7180
60C0
60C0
E0C0
60C0
7B80
7F00
1E00
ENDCHAR
STARTCHAR $1ECF
ENCODING 7887
SWIDTH 495 0
DWIDTH 7 0
BBX 7 10 0 0
BITMAP
10
08
18
38
7C
7E
EE
6E
7C
38
ENDCHAR
STARTCHAR $1ED0
ENCODING 7888
SWIDTH 720 0
DWIDTH 11 0
BBX 10 15 0 0
BITMAP
0080
0180
0F00
0E00
0000
1E00
3F80
6380
61C0
60C0
E0C0
61C0
7380
3F80
0E00
ENDCHAR
STARTCHAR $1ED1
ENCODING 7889
SWIDTH 495 0
DWIDTH 7 0
BBX 7 13 0 1
BITMAP
10
38
20
00
10
7C
00
38
7C
6E
EE
7C
38
ENDCHAR
STARTCHAR $1ED2
ENCODING 7890
SWIDTH 720 0
DWIDTH 11 0
BBX 10 14 0 1
BITMAP
0300
0500
0C00
0E00
0E00
3F80
7380
61C0
60C0
E0C0
61C0
6380
3F80
1E00
ENDCHAR
STARTCHAR $1ED3
ENCODING 7891
SWIDTH 495 0
DWIDTH 7 0
BBX 7 12 0 2
BITMAP
10
10
00
00
38
00
38
7C
6E
EE
6E
7C
ENDCHAR
STARTCHAR $1ED4
ENCODING 7892
SWIDTH 720 0
DWIDTH 11 0
BBX 10 16 0 1
BITMAP
0700
0100
0100
0200
0E00
0A00
1E00
3F80
7380
61C0
E0C0
60C0
61C0
6380
3F80
1E00
ENDCHAR
STARTCHAR $1ED5
ENCODING 7893
SWIDTH 495 0
DWIDTH 7 0
BBX 7 13 0 1
BITMAP
10
08
18
10
10
7C
00
38
7C
6E
EE
7C
38
ENDCHAR
STARTCHAR $1ED6
ENCODING 7894
SWIDTH 720 0
DWIDTH 11 0
BBX 10 15 0 0
BITMAP
1B00
1E00
0000
1E00
0200
1E00
3F80
6380
61C0
60C0
E0C0
61C0
7380
3F80
0E00
ENDCHAR
STARTCHAR $1ED7
ENCODING 7895
SWIDTH 495 0
DWIDTH 7 0
BBX 7 12 0 1
BITMAP
34
7C
00
08
38
00
38
7C
6E
EE
6E
7C
ENDCHAR
STARTCHAR $1ED8
ENCODING 7896
SWIDTH 720 0
DWIDTH 11 0
BBX 10 13 0 0
BITMAP
0C00
0E00
0200
0A00
3F00
7180
60C0
60C0
E0C0
60C0
7B80
7F00
1E00
ENDCHAR
STARTCHAR $1ED9
ENCODING 7897
SWIDTH 495 0
DWIDTH 7 0
BBX 7 9 0 0
BITMAP
10
38
00
08
7C
EE
6E
7C
38
ENDCHAR
STARTCHAR $1EDA
ENCODING 7898
SWIDTH 720 0
DWIDTH 11 0
BBX 11 13 0 2
BITMAP
0400
0C00
0000
0A40
3FE0
71C0
60C0
60C0
E0C0
60C0
7B80
7F00
1E00
ENDCHAR
STARTCHAR $1EDB
ENCODING 7899
SWIDTH 495 0
DWIDTH 7 0
BBX 8 10 0 0
BITMAP
10
38
20
0B
7F
7C
EE
6E
7C
38
ENDCHAR
STARTCHAR $1EDC
ENCODING 7900
SWIDTH 720 0
DWIDTH 11 0
BBX 11 13 0 2
BITMAP
0800
0600
0000
0A40
3FE0
71C0
60C0
60C0
E0C0
60C0
7B80
7F00
1E00
ENDCHAR
STARTCHAR $1EDD
ENCODING 7901
SWIDTH 495 0
DWIDTH 7 0
BBX 8 10 0 0
BITMAP
10
18
08
0B
7F
7C
EE
6E
7C
38
ENDCHAR
STARTCHAR $1EDE
ENCODING 7902
SWIDTH 720 0
DWIDTH 11 0
BBX 11 13 0 2
BITMAP
0C00
0C00
0400
0E00
3FE0
7FC0
71C0
60C0
E0C0
60C0
6180
7F80
3F00
ENDCHAR
STARTCHAR $1EDF
ENCODING 7903
SWIDTH 495 0
DWIDTH 7 0
BBX 8 10 0 0
BITMAP
10
08
18
3B
7F
7C
EE
6E
7C
38
ENDCHAR
STARTCHAR $1EE0
ENCODING 7904
SWIDTH 720 0
DWIDTH 11 0
BBX 11 13 0 1
BITMAP
1B00
1E00
0000
0A40
3FE0
71C0
60C0
60C0
E0C0
60C0
7B80
7F00
1E00
ENDCHAR
STARTCHAR $1EE1
ENCODING 7905
SWIDTH 495 0
DWIDTH 7 0
BBX 8 9 0 1
BITMAP
34
7C
03
0B
7C
EE
6E
7C
38
ENDCHAR
STARTCHAR $1EE2
ENCODING 7906
SWIDTH 720 0
DWIDTH 11 0
BBX 10 14 0 -4
BITMAP
0040
3F40
7FC0
6180
60C0
E0C0
60C0
71C0
7F80
3F00
0A00
0000
0400
0C00
ENDCHAR
STARTCHAR $1EE3
ENCODING 7907
SWIDTH 495 0
DWIDTH 7 0
BBX 8 10 0 -3
BITMAP
03
3B
7F
FE
6E
7C
38
00
10
10
ENDCHAR
STARTCHAR $1EE4
ENCODING 7908
SWIDTH 630 0
DWIDTH 9 0
BBX 8 10 1 0
BITMAP
C7
C7
C7
C7
C7
C7
C7
EE
7E
38
ENDCHAR
STARTCHAR $1EE5
ENCODING 7909
SWIDTH 540 0
DWIDTH 8 0
BBX 6 7 1 -1
BITMAP
CC
CC
CC
CC
7C
38
10
ENDCHAR
STARTCHAR $1EE6
ENCODING 7910
SWIDTH 630 0
DWIDTH 9 0
BBX 8 13 1 1
BITMAP
38
08
00
02
C7
C7
C7
C7
C7
C7
CE
7C
38
ENDCHAR
STARTCHAR $1EE7
ENCODING 7911
SWIDTH 540 0
DWIDTH 8 0
BBX 6 10 1 0
BITMAP
70
10
00
00
CC
CC
CC
DC
FC
70
ENDCHAR
STARTCHAR $1EE8
ENCODING 7912
SWIDTH 765 0
DWIDTH 11 0
BBX 10 13 1 2
BITMAP
1800
1000
0040
02C0
C700
C700
C700
C700
C700
C700
CE00
7C00
3800
ENDCHAR
STARTCHAR $1EE9
ENCODING 7913
SWIDTH 675 0
DWIDTH 10 0
BBX 9 10 1 0
BITMAP
1000
3000
2080
0380
CF00
CC00
CC00
DC00
FC00
7000
ENDCHAR
STARTCHAR $1EEA
ENCODING 7914
SWIDTH 765 0
DWIDTH 11 0
BBX 10 13 1 2
BITMAP
1000
0800
0040
02C0
C700
C700
C700
C700
C700
C700
CE00
7C00
3800
ENDCHAR
STARTCHAR $1EEB
ENCODING 7915
SWIDTH 675 0
DWIDTH 10 0
BBX 9 10 1 0
BITMAP
1000
3000
0080
0380
CF00
CC00
CC00
DC00
FC00
7000
ENDCHAR
STARTCHAR $1EEC
ENCODING 7916
SWIDTH 765 0
DWIDTH 11 0
BBX 10 13 1 2
BITMAP
3000
0800
0840
02C0
C7C0
C700
C700
C700
C700
C700
C600
7E00
3C00
ENDCHAR
STARTCHAR $1EED
ENCODING 7917
SWIDTH 675 0
DWIDTH 10 0
BBX 9 10 1 0
BITMAP
7000
1000
0080
0380
CF00
CC00
CC00
DC00
FC00
7000
ENDCHAR
STARTCHAR $1EEE
ENCODING 7918
SWIDTH 765 0
DWIDTH 11 0
BBX 10 13 1 1
BITMAP
3400
4C00
0040
02C0
C700
C700
C700
C700
C700
C700
CE00
7C00
3800
ENDCHAR
STARTCHAR $1EEF
ENCODING 7919
SWIDTH 675 0
DWIDTH 10 0
BBX 9 9 1 1
BITMAP
7C00
7880
0080
0380
CC00
CC00
CC00
FC00
7800
ENDCHAR
STARTCHAR $1EF0
ENCODING 7920
SWIDTH 765 0
DWIDTH 11 0
BBX 10 13 1 -1
BITMAP
0040
C7C0
C780
C700
C700
C700
C700
C700
EE00
7E00
3800
1000
1000
ENDCHAR
STARTCHAR $1EF1
ENCODING 7921
SWIDTH 675 0
DWIDTH 10 0
BBX 9 8 1 0
BITMAP
0080
C780
CF00
CC00
CC00
FC00
7000
1000
ENDCHAR
STARTCHAR $1EF2
ENCODING 7922
SWIDTH 585 0
DWIDTH 9 0
BBX 7 13 1 1
BITMAP
20
30
10
04
CE
EC
78
78
38
10
10
10
30
ENDCHAR
STARTCHAR $1EF3
ENCODING 7923
SWIDTH 495 0
DWIDTH 7 0
BBX 6 13 1 -3
BITMAP
20
30
10
04
8C
D8
D8
70
70
60
60
60
40
ENDCHAR
STARTCHAR $1EF4
ENCODING 7924
SWIDTH 585 0
DWIDTH 9 0
BBX 8 12 0 -2
BITMAP
E7
E7
7E
3E
3C
18
18
08
18
08
08
08
ENDCHAR
STARTCHAR $1EF5
ENCODING 7925
SWIDTH 495 0
DWIDTH 7 0
BBX 7 9 0 -3
BITMAP
C6
6E
7C
7C
38
38
30
30
60
ENDCHAR
STARTCHAR $1EF6
ENCODING 7926
SWIDTH 585 0
DWIDTH 9 0
BBX 7 13 1 1
BITMAP
30
18
10
04
CE
EC
78
78
38
10
10
10
30
ENDCHAR
STARTCHAR $1EF7
ENCODING 7927
SWIDTH 495 0
DWIDTH 7 0
BBX 6 13 1 -3
BITMAP
60
10
10
04
8C
D8
D8
70
70
60
60
60
40
ENDCHAR
STARTCHAR $1EF8
ENCODING 7928
SWIDTH 585 0
DWIDTH 9 0
BBX 8 12 0 1
BITMAP
34
0C
00
E7
66
3E
3C
1C
18
08
08
08
ENDCHAR
STARTCHAR $1EF9
ENCODING 7929
SWIDTH 495 0
DWIDTH 7 0
BBX 6 12 1 -3
BITMAP
68
F8
00
04
D8
D8
F8
70
60
60
60
40
ENDCHAR
STARTCHAR $2013
ENCODING 8211
SWIDTH 450 0
DWIDTH 7 0
BBX 6 2 0 4
BITMAP
FC
FC
ENDCHAR
STARTCHAR $2014
ENCODING 8212
SWIDTH 855 0
DWIDTH 12 0
BBX 12 2 0 4
BITMAP
FFF0
FFF0
ENDCHAR
STARTCHAR $2018
ENCODING 8216
SWIDTH 225 0
DWIDTH 4 0
BBX 2 4 1 7
BITMAP
40
80
C0
C0
ENDCHAR
STARTCHAR $2019
ENCODING 8217
SWIDTH 225 0
DWIDTH 4 0
BBX 3 4 0 7
BITMAP
40
E0
60
40
ENDCHAR
STARTCHAR $201A
ENCODING 8218
SWIDTH 225 0
DWIDTH 4 0
BBX 3 4 1 0
BITMAP
40
E0
C0
C0
ENDCHAR
STARTCHAR $201C
ENCODING 8220
SWIDTH 495 0
DWIDTH 7 0
BBX 6 4 1 7
BITMAP
68
48
EC
EC
ENDCHAR
STARTCHAR $201D
ENCODING 8221
SWIDTH 495 0
DWIDTH 7 0
BBX 6 4 1 7
BITMAP
48
EC
C8
48
ENDCHAR
STARTCHAR $201E
ENCODING 8222
SWIDTH 495 0
DWIDTH 7 0
BBX 6 4 1 0
BITMAP
48
EC
C8
C8
ENDCHAR
STARTCHAR $2020
ENCODING 8224
SWIDTH 450 0
DWIDTH 7 0
BBX 4 12 1 -1
BITMAP
70
70
70
F0
70
70
70
70
70
60
70
60
ENDCHAR
STARTCHAR $2021
ENCODING 8225
SWIDTH 450 0
DWIDTH 7 0
BBX 4 12 1 -1
BITMAP
70
70
70
F0
70
70
F0
F0
70
60
70
60
ENDCHAR
STARTCHAR $2022
ENCODING 8226
SWIDTH 540 0
DWIDTH 8 0
BBX 4 4 2 4
BITMAP
70
F0
F0
F0
ENDCHAR
STARTCHAR $2026
ENCODING 8230
SWIDTH 810 0
DWIDTH 12 0
BBX 10 3 1 0
BITMAP
4CC0
CCC0
04C0
ENDCHAR
STARTCHAR $2030
ENCODING 8240
SWIDTH 1125 0
DWIDTH 16 0
BBX 14 10 1 0
BITMAP
7000
D040
9080
F300
1800
3F18
6DAC
C9E4
07BC
0318
ENDCHAR
STARTCHAR $2039
ENCODING 8249
SWIDTH 315 0
DWIDTH 5 0
BBX 3 5 1 1
BITMAP
20
40
C0
C0
60
ENDCHAR
STARTCHAR $203A
ENCODING 8250
SWIDTH 315 0
DWIDTH 5 0
BBX 3 5 1 2
BITMAP
40
C0
60
40
C0
ENDCHAR
STARTCHAR $2044
ENCODING 8260
SWIDTH 225 0
DWIDTH 4 0
BBX 6 10 -2 0
BITMAP
04
0C
08
08
10
10
30
60
40
80
ENDCHAR
STARTCHAR $2074
ENCODING 8308
SWIDTH 225 0
DWIDTH 4 0
BBX 3 4 0 7
BITMAP
60
60
E0
C0
ENDCHAR
STARTCHAR $20A1
ENCODING 8353
SWIDTH 585 0
DWIDTH 9 0
BBX 8 11 0 1
BITMAP
06
3F
7F
6E
7E
EC
7C
7C
7F
7F
6A
ENDCHAR
STARTCHAR $20A3
ENCODING 8355
SWIDTH 495 0
DWIDTH 7 0
BBX 6 10 0 0
BITMAP
7C
7C
60
68
7C
78
60
F0
E0
40
ENDCHAR
STARTCHAR $20A4
ENCODING 8356
SWIDTH 630 0
DWIDTH 9 0
BBX 7 10 1 0
BITMAP
38
7C
60
60
F8
70
30
30
FE
8C
ENDCHAR
STARTCHAR $20A6
ENCODING 8358
SWIDTH 720 0
DWIDTH 11 0
BBX 10 10 0 0
BITMAP
7180
7180
7980
FF80
FFC0
6D80
6780
6780
6380
4300
ENDCHAR
STARTCHAR $20A7
ENCODING 8359
SWIDTH 540 0
DWIDTH 8 0
BBX 7 10 0 0
BITMAP
7C
7E
6E
FE
7E
7C
60
60
60
40
ENDCHAR
STARTCHAR $20A9
ENCODING 8361
SWIDTH 900 0
DWIDTH 13 0
BBX 12 10 0 0
BITMAP
E630
6630
7F20
FFF0
FFF0
7DE0
39E0
39C0
39E0
38C0
ENDCHAR
STARTCHAR $20AB
ENCODING 8363
SWIDTH 540 0
DWIDTH 8 0
BBX 8 12 0 -1
BITMAP
06
0E
0F
06
36
7E
66
E6
7E
7E
3A
38
ENDCHAR
STARTCHAR $20AC
ENCODING 8364
SWIDTH 675 0
DWIDTH 10 0
BBX 9 10 0 0
BITMAP
1F00
3F80
7900
FA00
7000
FE00
7000
3900
1F80
0F00
ENDCHAR
STARTCHAR $20AD
ENCODING 8365
SWIDTH 585 0
DWIDTH 9 0
BBX 8 10 0 0
BITMAP
66
6E
7C
FE
FF
78
7C
6C
66
43
ENDCHAR
STARTCHAR $20B1
ENCODING 8369
SWIDTH 540 0
DWIDTH 8 0
BBX 7 10 0 0
BITMAP
7C
7E
6E
FE
6E
6E
7C
70
60
40
ENDCHAR
STARTCHAR $20B2
ENCODING 8370
SWIDTH 720 0
DWIDTH 11 0
BBX 10 12 0 -1
BITMAP
1C00
3F00
7F80
7D00
FC00
EF80
7CC0
7DC0
7F80
3F00
0E00
0C00
ENDCHAR
STARTCHAR $20B5
ENCODING 8373
SWIDTH 585 0
DWIDTH 9 0
BBX 8 12 0 -1
BITMAP
1C
3E
7F
7C
7C
EC
7C
7C
7F
3F
0E
0C
ENDCHAR
STARTCHAR $20B9
ENCODING 8377
SWIDTH 585 0
DWIDTH 9 0
BBX 6 10 1 0
BITMAP
FC
38
3C
FC
18
F8
E0
70
38
18
ENDCHAR
STARTCHAR $20BA
ENCODING 8378
SWIDTH 495 0
DWIDTH 7 0
BBX 7 10 0 0
BITMAP
60
60
78
F8
78
F0
66
6E
7C
78
ENDCHAR
STARTCHAR $20BC
ENCODING 8380
SWIDTH 585 0
DWIDTH 9 0
BBX 7 11 1 0
BITMAP
10
38
7C
FE
D6
D6
D6
D6
D6
C6
02
ENDCHAR
STARTCHAR $20BD
ENCODING 8381
SWIDTH 540 0
DWIDTH 8 0
BBX 8 10 -1 0
BITMAP
7C
7E
73
73
FF
FE
70
F0
70
20
ENDCHAR
STARTCHAR $2116
ENCODING 8470
SWIDTH 1260 0
DWIDTH 18 0
BBX 17 10 1 0
BITMAP
F31E00
F31F00
F33300
DB3300
DB3F00
CF1E00
CF0000
CF0000
C73F80
831F00
ENDCHAR
STARTCHAR $2122
ENCODING 8482
SWIDTH 405 0
DWIDTH 6 0
BBX 5 3 0 7
BITMAP
F8
10
10
ENDCHAR
STARTCHAR $2212
ENCODING 8722
SWIDTH 540 0
DWIDTH 8 0
BBX 6 2 1 4
BITMAP
FC
FC
ENDCHAR
STARTCHAR $2215
ENCODING 8725
SWIDTH 540 0
DWIDTH 8 0
BBX 5 10 2 1
BITMAP
18
10
30
20
20
60
60
C0
80
80
ENDCHAR
STARTCHAR $2219
ENCODING 8729
SWIDTH 540 0
DWIDTH 8 0
BBX 4 4 2 4
BITMAP
70
F0
F0
F0
ENDCHAR
STARTCHAR $2248
ENCODING 8776
SWIDTH 585 0
DWIDTH 9 0
BBX 7 5 1 2
BITMAP
74
DC
00
FA
1C
ENDCHAR
STARTCHAR $2260
ENCODING 8800
SWIDTH 540 0
DWIDTH 8 0
BBX 6 8 1 1
BITMAP
18
F8
FC
F8
FC
F8
C0
80
ENDCHAR
STARTCHAR $2264
ENCODING 8804
SWIDTH 540 0
DWIDTH 8 0
BBX 7 10 0 0
BITMAP
06
1E
7C
70
7C
1E
02
00
FE
FE
ENDCHAR
STARTCHAR $2265
ENCODING 8805
SWIDTH 540 0
DWIDTH 8 0
BBX 6 10 1 0
BITMAP
80
F0
7C
1C
7C
E0
80
00
FC
FC
ENDCHAR
STARTCHAR FB01
ENCODING 64257
SWIDTH 630 0
DWIDTH 9 0
BBX 8 10 0 1
BITMAP
18
33
73
70
F3
F3
73
73
73
63
ENDCHAR
STARTCHAR FB02
ENCODING 64258
SWIDTH 585 0
DWIDTH 9 0
BBX 8 10 0 1
BITMAP
1B
33
73
73
F3
F3
73
73
73
63
ENDCHAR
ENDFONT
